<?xml version="1.0" encoding="UTF-8"?>
<svg width="26px" height="26px" viewBox="0 0 26 26" version="1.1" xmlns="http://www.w3.org/2000/svg" xmlns:xlink="http://www.w3.org/1999/xlink">
    <!-- Generator: Sketch 52.4 (67378) - http://www.bohemiancoding.com/sketch -->
    <title>accounting-document</title>
    <desc>Created with Sketch.</desc>
    <g id="accounting-document" stroke="none" stroke-width="1" fill="none" fill-rule="evenodd">
        <g transform="translate(4.000000, 1.000000)" fill="#008C6F">
            <path d="M5.504,13 C5.228,13 5.004,12.776 5.004,12.5 L5.004,12 L4,12 C3.724,12 3.5,11.776 3.5,11.5 C3.5,11.224 3.724,11 4,11 L6.035,11 C6.38,11 6.686,10.793 6.815,10.472 C6.988,10.041 6.779,9.55 6.348,9.377 L4.285,8.551 C3.584,8.269 3.13,7.599 3.13,6.843 C3.13,6.351 3.321,5.888 3.669,5.54 C4.016,5.192 4.479,5 4.971,5 L5.004,5 L5.004,4.5 C5.004,4.224 5.228,4 5.504,4 C5.78,4 6.004,4.224 6.004,4.5 L6.004,5 L7,5 C7.276,5 7.5,5.224 7.5,5.5 C7.5,5.776 7.276,6 7,6 L4.971,6 C4.746,6 4.535,6.088 4.376,6.247 C4.217,6.406 4.13,6.618 4.13,6.843 C4.13,7.188 4.337,7.495 4.658,7.624 L6.721,8.45 C7.664,8.829 8.122,9.904 7.743,10.847 C7.461,11.546 6.791,11.999 6.035,12 L6.004,12 L6.004,12.5 C6.004,12.776 5.78,13 5.504,13 Z" id="Path"></path>
            <path d="M1.5,24 C0.673,24 0,23.327 0,22.5 L0,1.5 C0,0.673 0.673,0 1.5,0 L11.09,0 C11.298,0 11.501,0.044 11.698,0.131 C11.875,0.21 12.028,0.313 12.154,0.44 L17.568,5.854 C17.851,6.137 18.007,6.514 18.007,6.914 L18,22.5 C18,23.327 17.327,24 16.5,24 L1.5,24 Z M1.5,1 C1.224,1 1,1.224 1,1.5 L1,22.5 C1,22.776 1.224,23 1.5,23 L16.5,23 C16.776,23 17,22.776 17,22.5 L17.007,7 L12.5,7 C11.673,7 11,6.327 11,5.5 L11,1 L1.5,1 Z M12,5.5 C12,5.776 12.224,6 12.5,6 L16.3,6 L12,1.7 L12,5.5 Z" id="Shape" fill-rule="nonzero"></path>
            <path d="M3.587,17 C3.311,17 3.087,16.776 3.087,16.5 C3.087,16.224 3.311,16 3.587,16 L14.504,16 C14.78,16 15.004,16.224 15.004,16.5 C15.004,16.776 14.78,17 14.504,17 L3.587,17 Z" id="Path"></path>
            <path d="M9.52,14 C9.244,14 9.02,13.776 9.02,13.5 C9.02,13.224 9.244,13 9.52,13 L14.504,13 C14.78,13 15.004,13.224 15.004,13.5 C15.004,13.776 14.78,14 14.504,14 L9.52,14 Z" id="Path"></path>
            <path d="M11.504,11 C11.228,11 11.004,10.776 11.004,10.5 C11.004,10.224 11.228,10 11.504,10 L14.504,10 C14.78,10 15.004,10.224 15.004,10.5 C15.004,10.776 14.78,11 14.504,11 L11.504,11 Z" id="Path"></path>
            <path d="M3.587,20 C3.311,20 3.087,19.776 3.087,19.5 C3.087,19.224 3.311,19 3.587,19 L14.504,19 C14.78,19 15.004,19.224 15.004,19.5 C15.004,19.776 14.78,20 14.504,20 L3.587,20 Z" id="Path"></path>
        </g>
    </g>
</svg>