<?xml version="1.0" encoding="UTF-8"?>
<svg width="26px" height="26px" viewBox="0 0 26 26" version="1.1" xmlns="http://www.w3.org/2000/svg" xmlns:xlink="http://www.w3.org/1999/xlink">
    <!-- Generator: Sketch 52.4 (67378) - http://www.bohemiancoding.com/sketch -->
    <title>baggage-drop-off</title>
    <desc>Created with Sketch.</desc>
    <g id="baggage-drop-off" stroke="none" stroke-width="1" fill="none" fill-rule="evenodd">
        <g transform="translate(1.000000, 1.000000)" fill="#008C6F">
            <path d="M4.5,6 C2.846,6 1.5,4.654 1.5,3 C1.5,1.346 2.846,0 4.5,0 C6.154,0 7.5,1.346 7.5,3 C7.5,4.654 6.154,6 4.5,6 Z M4.5,1 C3.397,1 2.5,1.897 2.5,3 C2.5,4.103 3.397,5 4.5,5 C5.603,5 6.5,4.103 6.5,3 C6.5,1.897 5.603,1 4.5,1 Z" id="Shape" fill-rule="nonzero"></path>
            <path d="M3.5,24 C2.673,24 2,23.327 2,22.5 L2,16 L1.5,16 C0.673,16 0,15.327 0,14.5 L0,9.5 C0,8.121 1.121,7 2.5,7 L6.5,7 C7.879,7 9,8.121 9,9.5 L9,14.5 C9,15.327 8.327,16 7.5,16 L7,16 L7,22.5 C7,23.327 6.327,24 5.5,24 L3.5,24 Z M2.5,8 C1.673,8 1,8.673 1,9.5 L1,14.5 C1,14.776 1.224,15 1.5,15 L2.5,15 C2.776,15 3,15.224 3,15.5 L3,22.5 C3,22.776 3.224,23 3.5,23 L5.5,23 C5.776,23 6,22.776 6,22.5 L6,15.5 C6,15.224 6.224,15 6.5,15 L7.5,15 C7.776,15 8,14.776 8,14.5 L8,9.5 C8,8.673 7.327,8 6.5,8 L2.5,8 Z" id="Shape" fill-rule="nonzero"></path>
            <path d="M18,8.5 C17.866,8.5 17.741,8.448 17.646,8.354 C17.451,8.159 17.451,7.842 17.646,7.647 L19.293,6 L14.5,6 C14.224,6 14,5.776 14,5.5 C14,5.224 14.224,5 14.5,5 L19.293,5 L17.647,3.354 C17.452,3.159 17.452,2.842 17.647,2.647 C17.741,2.552 17.866,2.5 18,2.5 C18.134,2.5 18.259,2.552 18.354,2.646 L20.854,5.146 C20.9,5.192 20.937,5.247 20.963,5.309 C21.013,5.43 21.013,5.57 20.963,5.691 C20.938,5.752 20.901,5.807 20.854,5.854 L18.355,8.353 C18.259,8.448 18.134,8.5 18,8.5 Z" id="Path"></path>
            <path d="M12.5,24 C11.673,24 11,23.327 11,22.5 L11,16.5 C11,15.673 11.673,15 12.5,15 L14.5,15 L14.5,14.5 C14.504,13.125 15.625,12.004 16.999,12 L18,12 C19.375,12.004 20.496,13.125 20.5,14.499 L20.5,15 L22.5,15 C23.327,15 24,15.673 24,16.5 L24,22.5 C24,23.327 23.327,24 22.5,24 L12.5,24 Z M22.5,23 C22.776,23 23,22.776 23,22.5 L23,16.5 C23,16.224 22.776,16 22.5,16 L21,16 L21,23 L22.5,23 Z M20,23 L20,16 L15,16 L15,23 L20,23 Z M12.5,16 C12.224,16 12,16.224 12,16.5 L12,22.5 C12,22.776 12.224,23 12.5,23 L14,23 L14,16 L12.5,16 Z M19.5,15 L19.5,14.5 C19.498,13.676 18.824,13.002 17.999,13 L17.001,13 C16.176,13.002 15.502,13.676 15.5,14.501 C15.5,14.685748 15.5,14.8520813 15.5,15 C16.256819,15 17.5901524,15 19.5,15 Z" id="Shape" fill-rule="nonzero"></path>
        </g>
    </g>
</svg>