<?xml version="1.0" encoding="UTF-8"?>
<svg width="26px" height="26px" viewBox="0 0 26 26" version="1.1" xmlns="http://www.w3.org/2000/svg" xmlns:xlink="http://www.w3.org/1999/xlink">
    <!-- Generator: Sketch 52.4 (67378) - http://www.bohemiancoding.com/sketch -->
    <title>construction-shovel</title>
    <desc>Created with Sketch.</desc>
    <g id="construction-shovel" stroke="none" stroke-width="1" fill="none" fill-rule="evenodd">
        <g transform="translate(1.000000, 1.000000)" fill="#008C6F" fill-rule="nonzero" id="Shape">
            <path d="M0.5,23.984 C0.345,23.984 0.201,23.914 0.106,23.791 C0.011,23.669 -0.022,23.512 0.016,23.362 C0.092,23.061 1.91,15.984 5.571,15.984 L5.633,15.984 C6.691,15.984 7.724,16.286 8.619,16.858 C8.851,17.007 8.92,17.316 8.771,17.549 C8.679,17.693 8.521,17.78 8.35,17.78 C8.255,17.78 8.162,17.753 8.081,17.702 C7.347,17.233 6.499,16.985 5.628,16.985 L5.577,16.985 C3.219,16.985 1.636,21.46 1.166,22.985 L6.217,22.985 C6.662,22.243 7.932,20.203 9.636,18.164 C10.348,17.313 11.059,16.552 11.756,15.899 C11.395,15.748 11.075,15.542 10.798,15.284 L8.405,12.891 C8.216,12.702 8.112,12.451 8.112,12.184 C8.112,11.917 8.216,11.666 8.405,11.477 L9.819,10.064 L3.451,3.697 L1.33,5.818 C1.236,5.913 1.11,5.965 0.977,5.965 C0.844,5.965 0.718,5.913 0.623,5.818 C0.428,5.623 0.428,5.306 0.623,5.111 L5.572,0.162 C5.666,0.068 5.792,0.016 5.926,0.016 C6.06,0.016 6.185,0.068 6.28,0.162 C6.375,0.256 6.426,0.382 6.426,0.516 C6.426,0.65 6.374,0.775 6.279,0.869 L4.158,2.99 L10.522,9.355 L11.939,7.939 C12.128,7.751 12.379,7.647 12.646,7.647 C12.913,7.647 13.164,7.751 13.353,7.939 L15.754,10.347 C16.035,10.652 16.239,11.011 16.352,11.391 L16.769,13.04 C17.02,13.002 17.265,12.984 17.5,12.984 C20.021,12.984 21.947,14.833 23.07,18.331 C23.881,20.858 23.995,23.358 24,23.463 C24.006,23.598 23.955,23.732 23.862,23.83 C23.768,23.928 23.636,23.984 23.501,23.984 L0.5,23.984 Z M22.962,22.984 C22.781,20.971 21.837,13.984 17.5,13.984 C13.373,13.984 8.751,20.817 7.389,22.984 L22.962,22.984 Z M12.646,8.647 C12.646,8.647 9.108,12.183 9.108,12.183 L11.488,14.563 C11.674,14.736 11.898,14.878 12.146,14.98 L12.605,15.147 C13.71,14.236 14.782,13.608 15.796,13.275 L15.388,11.657 C15.323,11.441 15.195,11.218 15.031,11.038 L12.646,8.647 Z"></path>
        </g>
    </g>
</svg>