<?xml version="1.0" encoding="UTF-8"?>
<svg width="627px" height="403px" viewBox="0 0 627 403" version="1.1" xmlns="http://www.w3.org/2000/svg" xmlns:xlink="http://www.w3.org/1999/xlink">
    <title>icon/grande-vague</title>
    <defs>
        <linearGradient x1="100%" y1="50%" x2="0%" y2="50%" id="linearGradient-1">
            <stop stop-color="#008C6F" stop-opacity="0" offset="0%"></stop>
            <stop stop-color="#008C6F" offset="100%"></stop>
        </linearGradient>
    </defs>
    <g id="Symbols" stroke="none" stroke-width="1" fill="none" fill-rule="evenodd" opacity="0.497751635">
        <g id="icon/grande-vague" transform="translate(313.885418, 201.674297) scale(-1, 1) translate(-313.885418, -201.674297) translate(0.769691, 0.348021)" fill="url(#linearGradient-1)">
            <path d="M626.231455,170.0853 C621.878727,168.652201 617.468727,168.652201 613.116,168.652201 C573.832636,168.652201 551.948727,189.059525 512.659636,189.059525 C473.313273,189.059525 452.924182,168.652201 413.577818,168.652201 C374.288727,168.652201 352.410545,189.059525 313.121455,189.059525 C273.798,189.059525 251.948455,168.652201 212.630727,168.652201 C173.307273,168.652201 152.918182,189.059525 113.594727,189.059525 C74.277,189.059525 52.4274545,168.652201 13.1097273,168.652201 C8.74554545,168.652201 4.36990909,168.652201 0,170.0853 L0,143.888258 C4.36990909,142.397835 8.74554545,142.397835 13.1097273,142.397835 C52.4274545,142.397835 74.277,161.372061 113.594727,161.372061 C152.918182,161.372061 173.307273,142.397835 212.630727,142.397835 C251.948455,142.397835 273.798,161.372061 313.121455,161.372061 C352.410545,161.372061 374.288727,142.397835 413.577818,142.397835 C452.924182,142.397835 473.313273,161.372061 512.659636,161.372061 C551.948727,161.372061 573.832636,142.397835 613.116,142.397835 C617.468727,142.397835 621.878727,142.397835 626.231455,143.888258 L626.231455,170.0853 Z" id="Fill-1"></path>
            <path d="M626.231455,241.281065 C621.878727,239.847966 617.468727,239.847966 613.116,239.847966 C573.832636,239.847966 551.948727,260.25529 512.659636,260.25529 C473.313273,260.25529 452.924182,239.847966 413.577818,239.847966 C374.288727,239.847966 352.410545,260.25529 313.121455,260.25529 C273.798,260.25529 251.948455,239.847966 212.630727,239.847966 C173.307273,239.847966 152.918182,260.25529 113.594727,260.25529 C74.277,260.25529 52.4274545,239.847966 13.1097273,239.847966 C8.74554545,239.847966 4.36990909,239.847966 0,241.281065 L0,215.084023 C4.36990909,213.5936 8.74554545,213.5936 13.1097273,213.5936 C52.4274545,213.5936 74.277,232.567825 113.594727,232.567825 C152.918182,232.567825 173.307273,213.5936 212.630727,213.5936 C251.948455,213.5936 273.798,232.567825 313.121455,232.567825 C352.410545,232.567825 374.288727,213.5936 413.577818,213.5936 C452.924182,213.5936 473.313273,232.567825 512.659636,232.567825 C551.948727,232.567825 573.832636,213.5936 613.116,213.5936 C617.468727,213.5936 621.878727,213.5936 626.231455,215.084023 L626.231455,241.281065 Z" id="Fill-4"></path>
            <path d="M626.231455,312.479696 C621.878727,311.046597 617.468727,311.046597 613.116,311.046597 C573.832636,311.046597 551.948727,331.453921 512.659636,331.453921 C473.313273,331.453921 452.924182,311.046597 413.577818,311.046597 C374.288727,311.046597 352.410545,331.453921 313.121455,331.453921 C273.798,331.453921 251.948455,311.046597 212.630727,311.046597 C173.307273,311.046597 152.918182,331.453921 113.594727,331.453921 C74.277,331.453921 52.4274545,311.046597 13.1097273,311.046597 C8.74554545,311.046597 4.36990909,311.046597 0,312.479696 L0,286.282654 C4.36990909,284.792231 8.74554545,284.792231 13.1097273,284.792231 C52.4274545,284.792231 74.277,303.766456 113.594727,303.766456 C152.918182,303.766456 173.307273,284.792231 212.630727,284.792231 C251.948455,284.792231 273.798,303.766456 313.121455,303.766456 C352.410545,303.766456 374.288727,284.792231 413.577818,284.792231 C452.924182,284.792231 473.313273,303.766456 512.659636,303.766456 C551.948727,303.766456 573.832636,284.792231 613.116,284.792231 C617.468727,284.792231 621.878727,284.792231 626.231455,286.282654 L626.231455,312.479696 Z" id="Fill-7"></path>
            <path d="M626.231455,383.678327 C621.878727,382.245228 617.468727,382.245228 613.116,382.245228 C573.832636,382.245228 551.948727,402.652552 512.659636,402.652552 C473.313273,402.652552 452.924182,382.245228 413.577818,382.245228 C374.288727,382.245228 352.410545,402.652552 313.121455,402.652552 C273.798,402.652552 251.948455,382.245228 212.630727,382.245228 C173.307273,382.245228 152.918182,402.652552 113.594727,402.652552 C74.277,402.652552 52.4274545,382.245228 13.1097273,382.245228 C8.74554545,382.245228 4.36990909,382.245228 0,383.678327 L0,357.481285 C4.36990909,355.990862 8.74554545,355.990862 13.1097273,355.990862 C52.4274545,355.990862 74.277,374.965087 113.594727,374.965087 C152.918182,374.965087 173.307273,355.990862 212.630727,355.990862 C251.948455,355.990862 273.798,374.965087 313.121455,374.965087 C352.410545,374.965087 374.288727,355.990862 413.577818,355.990862 C452.924182,355.990862 473.313273,374.965087 512.659636,374.965087 C551.948727,374.965087 573.832636,355.990862 613.116,355.990862 C617.468727,355.990862 621.878727,355.990862 626.231455,357.481285 L626.231455,383.678327 Z" id="Fill-10"></path>
            <path d="M626.231455,98.886669 C621.878727,97.4535704 617.468727,97.4535704 613.116,97.4535704 C573.832636,97.4535704 551.948727,117.860894 512.659636,117.860894 C473.313273,117.860894 452.924182,97.4535704 413.577818,97.4535704 C374.288727,97.4535704 352.410545,117.860894 313.121455,117.860894 C273.798,117.860894 251.948455,97.4535704 212.630727,97.4535704 C173.307273,97.4535704 152.918182,117.860894 113.594727,117.860894 C74.277,117.860894 52.4274545,97.4535704 13.1097273,97.4535704 C8.74554545,97.4535704 4.36990909,97.4535704 0,98.886669 L0,72.6896268 C4.36990909,71.1992042 8.74554545,71.1992042 13.1097273,71.1992042 C52.4274545,71.1992042 74.277,90.1734296 113.594727,90.1734296 C152.918182,90.1734296 173.307273,71.1992042 212.630727,71.1992042 C251.948455,71.1992042 273.798,90.1734296 313.121455,90.1734296 C352.410545,90.1734296 374.288727,71.1992042 413.577818,71.1992042 C452.924182,71.1992042 473.313273,90.1734296 512.659636,90.1734296 C551.948727,90.1734296 573.832636,71.1992042 613.116,71.1992042 C617.468727,71.1992042 621.878727,71.1992042 626.231455,72.6896268 L626.231455,98.886669 Z" id="Fill-13"></path>
            <path d="M626.231455,27.6874648 C621.878727,26.2543662 617.468727,26.2543662 613.116,26.2543662 C573.832636,26.2543662 551.948727,46.6616901 512.659636,46.6616901 C473.313273,46.6616901 452.924182,26.2543662 413.577818,26.2543662 C374.288727,26.2543662 352.410545,46.6616901 313.121455,46.6616901 C273.798,46.6616901 251.948455,26.2543662 212.630727,26.2543662 C173.307273,26.2543662 152.918182,46.6616901 113.594727,46.6616901 C74.277,46.6616901 52.4274545,26.2543662 13.1097273,26.2543662 C8.74554545,26.2543662 4.36990909,26.2543662 0,27.6874648 L0,1.49042254 C4.36990909,0 8.74554545,0 13.1097273,0 C52.4274545,0 74.277,18.9742254 113.594727,18.9742254 C152.918182,18.9742254 173.307273,0 212.630727,0 C251.948455,0 273.798,18.9742254 313.121455,18.9742254 C352.410545,18.9742254 374.288727,0 413.577818,0 C452.924182,0 473.313273,18.9742254 512.659636,18.9742254 C551.948727,18.9742254 573.832636,0 613.116,0 C617.468727,0 621.878727,0 626.231455,1.49042254 L626.231455,27.6874648 Z" id="Fill-16"></path>
        </g>
    </g>
</svg>