<?xml version="1.0" encoding="UTF-8"?>
<svg width="251px" height="64px" viewBox="0 0 251 64" version="1.1" xmlns="http://www.w3.org/2000/svg" xmlns:xlink="http://www.w3.org/1999/xlink">
    <!-- Generator: Sketch 51.2 (57519) - http://www.bohemiancoding.com/sketch -->
    <title>Label Cite Energie - Couleur Copy</title>
    <desc>Created with Sketch.</desc>
    <defs>
        <polygon id="path-1" points="0 1.1730566 122.3388 1.1730566 122.3388 61.4431512 0 61.4431512"></polygon>
        <polygon id="path-3" points="0 64.8271925 250.874069 64.8271925 250.874069 1.24553208 0 1.24553208"></polygon>
    </defs>
    <g id="Symbols" stroke="none" stroke-width="1" fill="none" fill-rule="evenodd">
        <g id="Label-Cite-Energie---Couleur" transform="translate(0.000000, -1.000000)">
            <g id="Group">
                <g id="Group-3" transform="translate(0.000000, 0.072475)">
                    <mask id="mask-2" fill="white">
                        <use xlink:href="#path-1"></use>
                    </mask>
                    <g id="Clip-2"></g>
                    <path d="M122.3388,57.6242264 C103.499628,52.4724906 77.9594897,55.4923019 61.1872138,58.4822264 C19.5240414,65.9053585 0.0343862069,57.0314717 0.0343862069,57.0314717 L-0.000372413793,30.0275094 L11.2626621,20.1561509 L19.3912138,25.9429811 L19.3725931,12.0655472 L30.2483172,10.4379623 L36.5669379,13.208717 L36.560731,20.873434 L45.0976966,14.9807547 L50.6342483,19.2047547 L53.4484552,15.1550943 L61.8165931,15.1563396 L61.796731,5.73701887 L64.8790759,1.1730566 L67.9415586,5.75196226 L67.9303862,21.3130189 L72.6414207,21.3117736 L72.6376966,14.115283 L90.2032138,12.0144906 L97.3610069,17.5921132 L97.3597655,13.4664906 L107.558938,12.5063774 L112.022938,16.8897736 L112.022938,29.7074717 L117.003352,25.1808679 L122.3388,25.1870943 L122.3388,57.6242264 Z" id="Fill-1" fill="#0093D6" mask="url(#mask-2)"></path>
                </g>
                <path d="M15.8856828,48.2105094 C15.4003034,48.3051509 14.9000276,48.353717 14.3848552,48.353717 C13.5667862,48.353717 12.8616828,48.2291887 12.2720276,47.9813774 C11.6798897,47.733566 11.1982345,47.3861321 10.8233379,46.9390755 C10.4496828,46.4945094 10.1740966,45.9677547 9.99782069,45.3588113 C9.82154483,44.7511132 9.7334069,44.0811509 9.7334069,43.3526604 C9.7334069,42.5718679 9.83147586,41.8471132 10.0288552,41.1783962 C10.2249931,40.5096792 10.529131,39.9318679 10.9387862,39.4449623 C11.3484414,38.9593019 11.8660966,38.5757547 12.4917517,38.2968113 C13.1186483,38.0178679 13.8647172,37.8796415 14.7336828,37.8796415 C15.1296828,37.8796415 15.5269241,37.9045472 15.9316138,37.9556038 C16.3350621,38.0054151 16.7198897,38.0876038 17.0823724,38.198434 L16.8552,39.4760943 C16.5014069,39.3540566 16.1302345,39.2581698 15.7429241,39.1871887 C15.3518897,39.1149623 14.9670621,39.0800943 14.5822345,39.0800943 C13.9975448,39.0800943 13.4935448,39.1871887 13.0739586,39.4001321 C12.6543724,39.6130755 12.309269,39.9032264 12.0361655,40.2680943 C11.7643034,40.6342075 11.5644414,41.0625849 11.4378207,41.555717 C11.3112,42.0488491 11.2503724,42.5743585 11.2503724,43.1322453 C11.2503724,44.4011887 11.5284414,45.383717 12.0895448,46.0798302 C12.6506483,46.7746981 13.5270621,47.1221321 14.7200276,47.1221321 C15.0924414,47.1221321 15.4859586,47.0748113 15.893131,46.9789245 C16.3027862,46.8817925 16.6578207,46.7572642 16.9619586,46.6053396 L17.1903724,47.8369245 C16.8055448,47.9900943 16.3710621,48.1158679 15.8856828,48.2105094" id="Fill-4" fill="#FFFFFF"></path>
                <mask id="mask-4" fill="white">
                    <use xlink:href="#path-3"></use>
                </mask>
                <g id="Clip-7"></g>
                <path d="M19.2811034,48.2325509 L20.6453793,48.2325509 L20.6453793,40.6761736 L19.2811034,40.6761736 L19.2811034,48.2325509 Z M20.8725517,38.2902113 C20.8725517,38.5330415 20.7831724,38.7410038 20.6068966,38.9128528 C20.4293793,39.0859472 20.2146207,39.1718717 19.9626207,39.1718717 C19.7106207,39.1718717 19.4958621,39.0884377 19.3171034,38.9203245 C19.142069,38.7534566 19.053931,38.5430038 19.053931,38.2902113 C19.053931,38.0374189 19.142069,37.8244755 19.3171034,37.6513811 C19.4958621,37.4795321 19.7106207,37.3936075 19.9626207,37.3936075 C20.2146207,37.3936075 20.4293793,37.4795321 20.6068966,37.6513811 C20.7831724,37.8244755 20.8725517,38.0374189 20.8725517,38.2902113 Z" id="Fill-6" fill="#FFFFFF" mask="url(#mask-4)"></path>
                <path d="M26.4338069,48.3127472 C26.1594621,48.3401434 25.9024966,48.3538415 25.661669,48.3538415 C25.2756,48.3538415 24.9565655,48.3139925 24.6983586,48.2318038 C24.4413931,48.1508604 24.2340828,48.0201057 24.077669,47.8370491 C23.9212552,47.6552377 23.809531,47.4198792 23.7437379,47.1297283 C23.6767034,46.8408226 23.645669,46.494634 23.645669,46.0886717 L23.645669,41.7401434 L22.0989103,41.7401434 L22.0989103,40.6766717 L23.645669,40.6766717 L23.645669,38.2284453 L25.0087034,37.848634 L25.0087034,40.6766717 L27.1153241,40.6766717 L27.1153241,41.7401434 L25.0087034,41.7401434 L25.0087034,45.6030113 C25.0087034,45.9168226 25.0236,46.1758415 25.0546345,46.3775774 C25.0844276,46.5805585 25.1427724,46.7424453 25.2284276,46.8632377 C25.3153241,46.9852755 25.4258069,47.0687094 25.5623586,47.1147849 C25.6989103,47.1608604 25.8739448,47.1845208 26.0849793,47.1845208 C26.4288414,47.1845208 26.7466345,47.1421811 27.0383586,47.062483 L27.1761517,48.201917 C26.9539448,48.2479925 26.7069103,48.2853509 26.4338069,48.3127472" id="Fill-8" fill="#FFFFFF" mask="url(#mask-4)"></path>
                <path d="M31.4950345,39.5665019 L30.9041379,38.836766 L33.0256552,36.9215208 L33.768,37.8330679 L31.4950345,39.5665019 Z M32.9797241,42.0906906 C32.6768276,41.7457472 32.2572414,41.5738981 31.7222069,41.5738981 C31.2268966,41.5738981 30.8147586,41.7432566 30.4870345,42.0819736 C30.1593103,42.4219358 29.9544828,42.8802 29.8737931,43.4580113 L33.4042759,43.4580113 C33.4253793,42.8914075 33.2826207,42.435634 32.9797241,42.0906906 Z M34.7983448,43.6410679 C34.7983448,43.8540113 34.7834483,44.116766 34.7536552,44.4318226 L29.8278621,44.4318226 C29.798069,45.4043887 29.9768276,46.1191811 30.3666207,46.5749547 C30.7551724,47.0307283 31.3684138,47.2598604 32.2075862,47.2598604 C32.5713103,47.2598604 32.9375172,47.2212566 33.3062069,47.1452943 C33.6748966,47.0693321 34.0262069,46.9597472 34.3601379,46.8177849 L34.5562759,47.8825019 C34.1726897,48.0394075 33.7605517,48.1602 33.3211034,48.243634 C32.8816552,48.3270679 32.4235862,48.3681623 31.9493793,48.3681623 C30.7973793,48.3681623 29.9209655,48.0518604 29.3201379,47.4192566 C28.7193103,46.7854075 28.4188966,45.8103509 28.4188966,44.4915962 C28.4188966,43.9249925 28.4971034,43.3969925 28.6535172,42.9100868 C28.809931,42.4244264 29.0346207,42.0060113 29.3275862,41.6573321 C29.6205517,41.3074075 29.9743448,41.0334453 30.3889655,40.8366906 C30.8023448,40.6386906 31.2777931,40.5390679 31.8128276,40.5390679 C32.318069,40.5390679 32.7662069,40.6200113 33.1547586,40.7818981 C33.5433103,40.9450302 33.8586207,41.1704264 34.101931,41.4593321 C34.344,41.7482377 34.5215172,42.079483 34.632,42.4555585 C34.7424828,42.8291434 34.7983448,43.2251434 34.7983448,43.6410679 Z" id="Fill-9" fill="#FFFFFF" mask="url(#mask-4)"></path>
                <path d="M44.8314207,41.8017849 C44.5992828,41.740766 44.370869,41.6984264 44.1499034,41.6722755 C43.9264552,41.6473698 43.7104552,41.6336717 43.4981793,41.6336717 C43.1344552,41.6336717 42.8054897,41.6897094 42.5125241,41.8017849 C42.2195586,41.9138604 41.9675586,42.0906906 41.7614897,42.3335208 C41.5541793,42.5775962 41.3928,42.8914075 41.2773517,43.2762 C41.1606621,43.6609925 41.1035586,44.1279736 41.1035586,44.6758981 C41.1035586,45.4965396 41.2363862,46.1266528 41.5032828,46.567483 C41.7726621,47.0083132 42.194731,47.2287283 42.770731,47.2287283 C43.1121103,47.2287283 43.4137655,47.1378226 43.670731,46.9560113 C43.9289379,46.7729547 44.1424552,46.5425774 44.3162483,46.263634 C44.4875586,45.9846906 44.6166621,45.6733698 44.7023172,45.3284264 C44.7879724,44.9847283 44.8314207,44.644766 44.8314207,44.3097849 L44.8314207,41.8017849 Z M44.8773517,48.2324264 C44.8773517,48.0207283 44.8848,47.7666906 44.8996966,47.4728038 C44.9133517,47.178917 44.946869,46.9198981 44.9990069,46.6969925 L44.966731,46.6820491 C44.7544552,47.1988415 44.4304552,47.6097849 43.9897655,47.913634 C43.5503172,48.217483 43.0326621,48.3694075 42.4355586,48.3694075 C41.5057655,48.3694075 40.8130759,48.0518604 40.3525241,47.4192566 C39.8919724,46.7866528 39.6635586,45.9162 39.6635586,44.811634 C39.6635586,44.1528792 39.7541793,43.5601245 39.9366621,43.0333698 C40.1179034,42.5066151 40.3785931,42.0608038 40.7174897,41.6959358 C41.0551448,41.3310679 41.4648,41.0521245 41.9439724,40.8591057 C42.4243862,40.6673321 42.9619034,40.5702 43.5577655,40.5702 C43.7601103,40.5702 43.9649379,40.5776717 44.1722483,40.5938604 C44.3783172,40.6088038 44.5992828,40.6262377 44.8314207,40.6461623 L44.8314207,37.1344642 L46.1956966,37.1344642 L46.1956966,48.2324264 L44.8773517,48.2324264 Z" id="Fill-10" fill="#FFFFFF" mask="url(#mask-4)"></path>
                <path d="M52.7864276,42.0911887 C52.4847724,41.7462453 52.0639448,41.5743962 51.5289103,41.5743962 C51.0348414,41.5743962 50.6227034,41.7437547 50.2937379,42.083717 C49.9660138,42.422434 49.7599448,42.8806981 49.6792552,43.4585094 L53.2122207,43.4585094 C53.2308414,42.8919057 53.0893241,42.4361321 52.7864276,42.0911887 M54.6062897,43.641566 C54.6062897,43.8545094 54.5901517,44.1185094 54.5603586,44.4323208 L49.6345655,44.4323208 C49.6047724,45.4048868 49.783531,46.1196792 50.1733241,46.5754528 C50.5618759,47.0312264 51.1751172,47.2591132 52.0142897,47.2591132 C52.3767724,47.2591132 52.7442207,47.2217547 53.1141517,47.1457925 C53.4816,47.0698302 53.8329103,46.9602453 54.1656,46.8195283 L54.3642207,47.883 C53.9793931,48.0399057 53.5684966,48.1606981 53.1278069,48.2441321 C52.6896,48.327566 52.2327724,48.3686604 51.7560828,48.3686604 C50.6040828,48.3686604 49.727669,48.0523585 49.1280828,47.4197547 C48.5260138,46.7859057 48.2256,45.8108491 48.2256,44.4933396 C48.2256,43.9254906 48.3038069,43.3974906 48.4602207,42.9118302 C48.6178759,42.4249245 48.8413241,42.0065094 49.135531,41.6578302 C49.4272552,41.3079057 49.7810483,41.0339434 50.1944276,40.8371887 C50.6090483,40.6391887 51.0857379,40.539566 51.6207724,40.539566 C52.1260138,40.539566 52.571669,40.6205094 52.9627034,40.7836415 C53.3500138,40.9455283 53.6653241,41.1709245 53.9073931,41.4598302 C54.1519448,41.7487358 54.3269793,42.0812264 54.4387034,42.4560566 C54.5491862,42.8308868 54.6062897,43.2256415 54.6062897,43.641566" id="Fill-11" fill="#FFFFFF" mask="url(#mask-4)"></path>
                <polygon id="Fill-12" fill="#FFFFFF" mask="url(#mask-4)" points="60.1373793 48.2325509 61.5016552 48.2325509 61.5016552 37.1345887 60.1373793 37.1345887"></polygon>
                <path d="M64.8196138,36.9373358 C65.0927172,36.9373358 65.3198897,37.048166 65.501131,37.272317 C65.6836138,37.4939774 65.7667862,37.7940906 65.7518897,38.1689208 C65.7369931,38.5437509 65.6029241,38.9771094 65.3496828,39.4677509 C65.0964414,39.9596377 64.6780966,40.4739396 64.0921655,41.0119019 L63.501269,40.480166 C63.9854069,39.9322415 64.2622345,39.4889208 64.3267862,39.1489585 C64.3925793,38.8089962 64.3354759,38.5288075 64.1529931,38.3059019 C64.041269,38.1639396 63.9816828,38.0145057 63.9717517,37.8576 C63.9605793,37.6994491 63.9854069,37.5525057 64.0462345,37.4155245 C64.1070621,37.2797887 64.2063724,37.1652226 64.3429241,37.074317 C64.4782345,36.9834113 64.637131,36.9373358 64.8196138,36.9373358" id="Fill-13" fill="#FFFFFF" mask="url(#mask-4)"></path>
                <path d="M69.1838069,39.5665019 L68.5929103,38.836766 L70.7144276,36.9215208 L71.4580138,37.8330679 L69.1838069,39.5665019 Z M70.6684966,42.0906906 C70.3656,41.7457472 69.9460138,41.5738981 69.4122207,41.5738981 C68.915669,41.5738981 68.503531,41.7432566 68.1758069,42.0819736 C67.8468414,42.4219358 67.6432552,42.8802 67.5625655,43.4580113 L71.0942897,43.4580113 C71.1153931,42.8914075 70.9713931,42.435634 70.6684966,42.0906906 Z M72.4871172,43.6410679 C72.4871172,43.8540113 72.4722207,44.116766 72.4424276,44.4318226 L67.5178759,44.4318226 C67.4868414,45.4043887 67.6656,46.1191811 68.0553931,46.5749547 C68.4439448,47.0307283 69.0571862,47.2598604 69.8963586,47.2598604 C70.2600828,47.2598604 70.6262897,47.2212566 70.9949793,47.1452943 C71.363669,47.0693321 71.7149793,46.9597472 72.0501517,46.8177849 L72.2450483,47.8825019 C71.8614621,48.0394075 71.4493241,48.1602 71.0111172,48.243634 C70.5704276,48.3270679 70.1136,48.3681623 69.6381517,48.3681623 C68.4861517,48.3681623 67.6097379,48.0518604 67.0089103,47.4192566 C66.4093241,46.7854075 66.107669,45.8103509 66.107669,44.4915962 C66.107669,43.9249925 66.1858759,43.3969925 66.3422897,42.9100868 C66.4987034,42.4244264 66.7246345,42.0060113 67.0163586,41.6573321 C67.3093241,41.3074075 67.6631172,41.0334453 68.0764966,40.8366906 C68.4911172,40.6386906 68.9665655,40.5390679 69.5016,40.5390679 C70.0080828,40.5390679 70.4549793,40.6200113 70.843531,40.7818981 C71.2320828,40.9450302 71.5473931,41.1704264 71.7919448,41.4593321 C72.0327724,41.7482377 72.2102897,42.079483 72.3207724,42.4555585 C72.4312552,42.8291434 72.4871172,43.2251434 72.4871172,43.6410679 Z" id="Fill-14" fill="#FFFFFF" mask="url(#mask-4)"></path>
                <path d="M79.382731,48.2324264 L79.382731,43.3783132 C79.382731,42.8328792 79.2945931,42.4132189 79.1170759,42.1193321 C78.9420414,41.8266906 78.5994207,41.6797472 78.0954207,41.6797472 C77.7813517,41.6797472 77.4945931,41.7557094 77.2326621,41.907634 C76.9694897,42.0595585 76.7435586,42.2662755 76.5573517,42.5290302 C76.3686621,42.7930302 76.2234207,43.1031057 76.1166621,43.4617472 C76.0111448,43.821634 75.9565241,44.2076717 75.9565241,44.6223509 L75.9565241,48.2324264 L74.594731,48.2324264 L74.594731,40.6760491 L75.9118345,40.6760491 C75.9118345,40.9101623 75.9043862,41.1754075 75.890731,41.4742755 C75.8758345,41.7743887 75.8423172,42.039634 75.7914207,42.2737472 L75.8224552,42.2737472 C76.0446621,41.7557094 76.3798345,41.3385396 76.8292138,41.0185019 C77.2798345,40.6997094 77.8272828,40.5390679 78.4740414,40.5390679 C78.9072828,40.5390679 79.2685241,40.6038226 79.5577655,40.7295962 C79.8445241,40.8566151 80.0779034,41.0297094 80.2541793,41.2463887 C80.4316966,41.4655585 80.5570759,41.7208415 80.6340414,42.0147283 C80.7085241,42.3086151 80.7482483,42.6224264 80.7482483,42.9574075 L80.7482483,48.2324264 L79.382731,48.2324264 Z" id="Fill-15" fill="#FFFFFF" mask="url(#mask-4)"></path>
                <path d="M87.3244552,42.0911887 C87.0215586,41.7462453 86.6019724,41.5743962 86.0669379,41.5743962 C85.5703862,41.5743962 85.1594897,41.7437547 84.8317655,42.083717 C84.5028,42.422434 84.2979724,42.8806981 84.2172828,43.4585094 L87.7490069,43.4585094 C87.768869,42.8919057 87.6273517,42.4361321 87.3244552,42.0911887 M89.1430759,43.641566 C89.1430759,43.8545094 89.1281793,44.1185094 89.0971448,44.4323208 L84.1725931,44.4323208 C84.1415586,45.4048868 84.3215586,46.1196792 84.7101103,46.5754528 C85.0999034,47.0312264 85.7131448,47.2591132 86.5510759,47.2591132 C86.9148,47.2591132 87.2810069,47.2217547 87.6509379,47.1457925 C88.0196276,47.0698302 88.3696966,46.9602453 88.7036276,46.8195283 L88.9010069,47.883 C88.5174207,48.0399057 88.1052828,48.1606981 87.6658345,48.2441321 C87.2263862,48.327566 86.7695586,48.3686604 86.2941103,48.3686604 C85.1421103,48.3686604 84.2656966,48.0523585 83.664869,47.4197547 C83.0640414,46.7859057 82.7636276,45.8108491 82.7636276,44.4933396 C82.7636276,43.9254906 82.8418345,43.3974906 82.9970069,42.9118302 C83.1546621,42.4249245 83.3793517,42.0065094 83.6723172,41.6578302 C83.9652828,41.3079057 84.3190759,41.0339434 84.7324552,40.8371887 C85.1470759,40.6391887 85.6212828,40.539566 86.1575586,40.539566 C86.6628,40.539566 87.1096966,40.6205094 87.4994897,40.7836415 C87.8880414,40.9455283 88.2033517,41.1709245 88.4454207,41.4598302 C88.688731,41.7487358 88.8650069,42.0812264 88.976731,42.4560566 C89.0872138,42.8308868 89.1430759,43.2256415 89.1430759,43.641566" id="Fill-16" fill="#FFFFFF" mask="url(#mask-4)"></path>
                <path d="M94.9617931,41.8929396 C94.1635862,41.7509774 93.5726897,41.9614302 93.1891034,42.5242981 C92.8042759,43.087166 92.6131034,43.9750528 92.6131034,45.1916943 L92.6131034,48.2326755 L91.2488276,48.2326755 L91.2488276,40.6762981 L92.5671724,40.6762981 C92.5671724,40.9104113 92.556,41.1881094 92.529931,41.5131283 C92.5051034,41.8369019 92.4616552,42.1569396 92.4008276,42.4707509 L92.4318621,42.4707509 C92.5113103,42.2067509 92.6205517,41.9514679 92.7571034,41.7036566 C92.8936552,41.4546 93.0674483,41.239166 93.2809655,41.0573547 C93.492,40.8742981 93.7427586,40.7323358 94.0295172,40.6314679 C94.3175172,40.5306 94.6489655,40.4994679 95.0226207,40.539317 L94.9617931,41.8929396 Z" id="Fill-17" fill="#FFFFFF" mask="url(#mask-4)"></path>
                <path d="M100.978386,43.2458151 C100.978386,42.7290226 100.834386,42.3180792 100.542662,42.0154755 C100.252179,41.7103811 99.8363172,41.5584566 99.2975586,41.5584566 C98.7252828,41.5584566 98.2870759,41.7178528 97.9829379,42.0378906 C97.6763172,42.356683 97.524869,42.7601547 97.524869,43.2458151 C97.524869,43.7738151 97.6701103,44.1810226 97.9655586,44.4699283 C98.2622483,44.7575887 98.6892828,44.9032868 99.2503862,44.9032868 C99.7903862,44.9032868 100.216179,44.7575887 100.520317,44.4699283 C100.825697,44.1810226 100.978386,43.7738151 100.978386,43.2458151 M101.707076,49.4249094 C101.707076,49.0575509 101.581697,48.7674 101.332179,48.5532113 C101.083903,48.3402679 100.692869,48.2232113 100.155352,48.2020415 L98.6942483,48.1410226 L98.4683172,48.1410226 C98.3851448,48.1410226 98.3143862,48.1360415 98.2548,48.1260792 C97.9593517,48.3303057 97.724731,48.5557019 97.5472138,48.8060038 C97.3696966,49.0550604 97.2803172,49.3277774 97.2803172,49.6241547 C97.2803172,50.0824189 97.4714897,50.4360792 97.8501103,50.6851358 C98.2299724,50.9354377 98.7215586,51.059966 99.3174207,51.059966 C100.088317,51.059966 100.680455,50.9043057 101.091352,50.5942302 C101.501007,50.2829094 101.707076,49.8931358 101.707076,49.4249094 M103.071352,49.2505698 C103.071352,49.6465698 102.973283,50.0189094 102.78211,50.368834 C102.590938,50.7187585 102.316593,51.0213623 101.964041,51.2803811 C101.610248,51.5381547 101.188179,51.7436264 100.697834,51.8955509 C100.208731,52.0487208 99.6699724,52.124683 99.0852828,52.124683 C98.1058345,52.124683 97.3312138,51.9291736 96.7651448,51.5381547 C96.1990759,51.1483811 95.9172828,50.5892491 95.9172828,49.8582679 C95.9172828,49.4124566 96.0401793,49.0152113 96.2896966,48.6665321 C96.536731,48.3153623 96.8309379,48.0451358 97.1760414,47.852117 C96.9414207,47.7512491 96.7614207,47.6018151 96.6285931,47.4038151 C96.4982483,47.2058151 96.4324552,46.9804189 96.4324552,46.7276264 C96.4324552,46.4636264 96.5069379,46.2158151 96.6596276,45.9829472 C96.8123172,45.7500792 97.0134207,45.5720038 97.2666621,45.449966 C96.9215586,45.2469849 96.6521793,44.9742679 96.4535586,44.6293245 C96.2574207,44.2843811 96.1593517,43.8647208 96.1593517,43.3678528 C96.1593517,42.9930226 96.2301103,42.6331358 96.3703862,42.2881925 C96.5119034,41.9432491 96.716731,41.6418906 96.984869,41.384117 C97.2530069,41.1250981 97.5869379,40.9208717 97.9866621,40.7677019 C98.3839034,40.6157774 98.840731,40.5398151 99.3559034,40.5398151 C99.5582483,40.5398151 99.7382483,40.5510226 99.8946621,40.5697019 C100.052317,40.5908717 100.227352,40.6269849 100.418524,40.6767962 L102.978248,40.6767962 L102.978248,41.7402679 L101.735628,41.7402679 C101.928041,41.8934377 102.078248,42.092683 102.183766,42.3355132 C102.289283,42.580834 102.343903,42.8498151 102.343903,43.1449472 C102.343903,43.5309849 102.276869,43.8933623 102.145283,44.2283434 C102.013697,44.5633245 101.817559,44.8534755 101.555628,45.0975509 C101.291214,45.3416264 100.961007,45.5346453 100.561283,45.6778528 C100.1628,45.8198151 99.6960414,45.8907962 99.1597655,45.8907962 C98.8779724,45.8907962 98.6098345,45.8559283 98.3578345,45.7849472 C98.1952138,45.8658906 98.0735586,45.9630226 97.9941103,46.0738528 C97.9109379,46.184683 97.8712138,46.3017396 97.8712138,46.4237774 C97.8712138,46.6354755 97.9730069,46.7824189 98.1741103,46.8646075 C98.3764552,46.9455509 98.7041793,46.9953623 99.1597655,47.0165321 L100.538938,47.0613623 C101.358248,47.0924943 101.985145,47.2929849 102.417145,47.662834 C102.852869,48.032683 103.071352,48.5619283 103.071352,49.2505698" id="Fill-18" fill="#FFFFFF" mask="url(#mask-4)"></path>
                <path d="M104.918897,48.2325509 L106.283172,48.2325509 L106.283172,40.6761736 L104.918897,40.6761736 L104.918897,48.2325509 Z M106.510345,38.2902113 C106.510345,38.5330415 106.419724,38.7410038 106.24469,38.9128528 C106.068414,39.0859472 105.852414,39.1718717 105.600414,39.1718717 C105.348414,39.1718717 105.133655,39.0884377 104.956138,38.9203245 C104.779862,38.7534566 104.691724,38.5430038 104.691724,38.2902113 C104.691724,38.0374189 104.779862,37.8244755 104.956138,37.6513811 C105.133655,37.4795321 105.348414,37.3936075 105.600414,37.3936075 C105.852414,37.3936075 106.068414,37.4795321 106.24469,37.6513811 C106.419724,37.8244755 106.510345,38.0374189 106.510345,38.2902113 Z" id="Fill-19" fill="#FFFFFF" mask="url(#mask-4)"></path>
                <path d="M112.875766,42.0911887 C112.572869,41.7462453 112.153283,41.5743962 111.615766,41.5743962 C111.121697,41.5743962 110.7108,41.7437547 110.380593,42.083717 C110.05411,42.422434 109.849283,42.8806981 109.768593,43.4585094 L113.299076,43.4585094 C113.318938,42.8919057 113.177421,42.4361321 112.875766,42.0911887 M114.694386,43.641566 C114.694386,43.8545094 114.678248,44.1185094 114.648455,44.4323208 L109.723903,44.4323208 C109.692869,45.4048868 109.872869,46.1196792 110.261421,46.5754528 C110.651214,47.0312264 111.263214,47.2591132 112.102386,47.2591132 C112.46611,47.2591132 112.832317,47.2217547 113.201007,47.1457925 C113.569697,47.0698302 113.921007,46.9602453 114.253697,46.8195283 L114.452317,47.883 C114.068731,48.0399057 113.656593,48.1606981 113.215903,48.2441321 C112.777697,48.327566 112.319628,48.3686604 111.845421,48.3686604 C110.692179,48.3686604 109.817007,48.0523585 109.214938,47.4197547 C108.612869,46.7859057 108.313697,45.8108491 108.313697,44.4933396 C108.313697,43.9254906 108.391903,43.3974906 108.548317,42.9118302 C108.705972,42.4249245 108.929421,42.0065094 109.223628,41.6578302 C109.516593,41.3079057 109.870386,41.0339434 110.285007,40.8371887 C110.698386,40.6391887 111.172593,40.539566 111.708869,40.539566 C112.21411,40.539566 112.659766,40.6205094 113.049559,40.7836415 C113.436869,40.9455283 113.754662,41.1709245 113.99549,41.4598302 C114.240041,41.7487358 114.415076,42.0812264 114.528041,42.4560566 C114.638524,42.8308868 114.694386,43.2256415 114.694386,43.641566" id="Fill-20" fill="#FFFFFF" mask="url(#mask-4)"></path>
                <path d="M135.132083,56.6819208 C134.377324,56.6819208 133.84229,57.2522604 133.726841,58.104034 L136.421876,58.104034 C136.445462,57.2522604 135.945186,56.6819208 135.132083,56.6819208 M137.455945,58.8499585 L133.68091,58.8499585 C133.633738,60.3990906 134.273048,61.0628264 135.504497,61.0628264 C136.095393,61.0628264 136.723531,60.9233547 137.187807,60.7029396 L137.28091,61.5534679 C136.723531,61.7863358 136.048221,61.9133547 135.329462,61.9133547 C133.551807,61.9133547 132.599669,60.981883 132.599669,58.9421094 C132.599669,57.2061849 133.540634,55.9135811 135.178014,55.9135811 C136.804221,55.9135811 137.489462,57.0193925 137.489462,58.3481094 C137.489462,58.4875811 137.479531,58.6519585 137.455945,58.8499585" id="Fill-21" fill="#0093D6" mask="url(#mask-4)"></path>
                <path d="M142.704,61.809 C142.704,61.4715283 142.738759,60.9348113 142.797103,60.5973396 L142.774759,60.5861321 C142.437103,61.3893396 141.729517,61.9260566 140.741379,61.9260566 C139.418069,61.9260566 139.009655,61.0979434 139.009655,60.0730755 L139.009655,56.0171887 L140.043724,56.0171887 L140.043724,59.7580189 C140.043724,60.5749245 140.275862,61.0518679 141.030621,61.0518679 C141.984,61.0518679 142.680414,60.084283 142.680414,58.8028868 L142.680414,56.0171887 L143.714483,56.0171887 L143.714483,61.809 L142.704,61.809 Z" id="Fill-22" fill="#0093D6" mask="url(#mask-4)"></path>
                <path d="M148.53389,56.9384491 C147.314855,56.7292415 146.73389,57.6258453 146.73389,59.4788264 L146.73389,61.8099962 L145.687407,61.8099962 L145.687407,56.0169396 L146.69789,56.0169396 C146.69789,56.379317 146.663131,56.9147887 146.571269,57.3929774 L146.594855,57.3929774 C146.838166,56.5897698 147.430303,55.7840717 148.579821,55.9123358 L148.53389,56.9384491 Z" id="Fill-23" fill="#0093D6" mask="url(#mask-4)"></path>
                <path d="M151.994979,56.7865245 C151.15829,56.7865245 150.368772,57.4278453 150.368772,58.861166 C150.368772,60.2596189 150.937324,61.0279585 151.994979,61.0279585 C152.854014,61.0279585 153.5976,60.3530151 153.5976,58.8723736 C153.5976,57.5561094 153.063807,56.7865245 151.994979,56.7865245 M151.867117,61.9146 C150.299255,61.9146 149.2776,61.0055434 149.2776,58.9657698 C149.2776,57.2634679 150.346428,55.9123358 152.088083,55.9123358 C153.564083,55.9123358 154.690014,56.7279962 154.690014,58.8138453 C154.690014,60.5622226 153.575255,61.9146 151.867117,61.9146" id="Fill-24" fill="#0093D6" mask="url(#mask-4)"></path>
                <path d="M158.765586,56.7749434 C157.719103,56.7749434 157.187793,57.9978113 157.187793,59.012717 L157.187793,60.9242264 C157.488207,61.0163774 157.812207,61.0636981 158.208207,61.0636981 C159.310552,61.0636981 160.042966,60.3999623 160.042966,58.7325283 C160.042966,57.486 159.637034,56.7749434 158.765586,56.7749434 M158.162276,61.8793585 C157.802276,61.8793585 157.522966,61.8669057 157.187793,61.8096226 L157.187793,64.6874717 L156.14131,64.6874717 L156.14131,56.0178113 L157.150552,56.0178113 C157.150552,56.3440755 157.128207,56.8683396 157.057448,57.1946038 L157.081034,57.2058113 C157.405034,56.4026038 158.103931,55.9132075 159.022552,55.9132075 C160.369448,55.9132075 161.135379,56.8683396 161.135379,58.6391321 C161.135379,60.7013208 160.033034,61.8793585 158.162276,61.8793585" id="Fill-25" fill="#0093D6" mask="url(#mask-4)"></path>
                <path d="M164.641531,56.6819208 C163.888014,56.6819208 163.352979,57.2522604 163.23629,58.104034 L165.931324,58.104034 C165.95491,57.2522604 165.455876,56.6819208 164.641531,56.6819208 M166.965393,58.8499585 L163.190359,58.8499585 C163.143186,60.3990906 163.782497,61.0628264 165.015186,61.0628264 C165.606083,61.0628264 166.232979,60.9233547 166.697255,60.7029396 L166.790359,61.5534679 C166.232979,61.7863358 165.560152,61.9133547 164.83891,61.9133547 C163.063738,61.9133547 162.109117,60.981883 162.109117,58.9421094 C162.109117,57.2061849 163.050083,55.9135811 164.687462,55.9135811 C166.316152,55.9135811 167.000152,57.0193925 167.000152,58.3481094 C167.000152,58.4875811 166.988979,58.6519585 166.965393,58.8499585" id="Fill-26" fill="#0093D6" mask="url(#mask-4)"></path>
                <path d="M171.540621,59.1408566 C169.532069,59.1408566 169.090138,59.758517 169.090138,60.2827811 C169.090138,60.7721774 169.438966,61.0859887 169.972759,61.0859887 C170.912483,61.0859887 171.540621,60.1532717 171.540621,59.2454604 L171.540621,59.1408566 Z M171.598966,61.8094981 C171.598966,61.4010453 171.598966,60.9826302 171.65731,60.6551208 L171.633724,60.6551208 C171.356897,61.3661774 170.624483,61.9153472 169.671103,61.9153472 C168.718966,61.9153472 168.067241,61.4010453 168.067241,60.4807811 C168.067241,59.2093472 169.357034,58.4061396 171.540621,58.4061396 L171.540621,57.9752717 C171.540621,57.1720642 171.226552,56.7399509 170.273172,56.7399509 C169.728207,56.7399509 169.031793,56.9155358 168.531517,57.2181396 L168.427241,56.3202906 C168.985862,56.0874226 169.682276,55.9006302 170.448207,55.9006302 C172.109172,55.9006302 172.587103,56.6814226 172.587103,57.8358 L172.587103,60.1420642 C172.587103,60.6899887 172.598276,61.3076491 172.609448,61.8094981 L171.598966,61.8094981 Z" id="Fill-27" fill="#0093D6" mask="url(#mask-4)"></path>
                <path d="M178.242083,61.809 L178.242083,58.0681698 C178.242083,57.2525094 178.021117,56.7743208 177.253945,56.7743208 C176.303048,56.7743208 175.617807,57.7419057 175.617807,59.0245472 L175.617807,61.809 L174.571324,61.809 L174.571324,56.0171887 L175.580566,56.0171887 C175.580566,56.3546604 175.558221,56.8926226 175.487462,57.2300943 L175.51229,57.2425472 C175.848703,56.4368491 176.557531,55.9013774 177.544428,55.9013774 C178.868979,55.9013774 179.288566,56.7282453 179.288566,57.7531132 L179.288566,61.809 L178.242083,61.809 Z" id="Fill-28" fill="#0093D6" mask="url(#mask-4)"></path>
                <path d="M185.801959,56.6819208 C185.0472,56.6819208 184.512166,57.2522604 184.396717,58.104034 L187.091752,58.104034 C187.115338,57.2522604 186.615062,56.6819208 185.801959,56.6819208 M188.125821,58.8499585 L184.350786,58.8499585 C184.303614,60.3990906 184.942924,61.0628264 186.173131,61.0628264 C186.765269,61.0628264 187.393407,60.9233547 187.857683,60.7029396 L187.950786,61.5534679 C187.393407,61.7863358 186.720579,61.9133547 185.999338,61.9133547 C184.221683,61.9133547 183.269545,60.981883 183.269545,58.9421094 C183.269545,57.2061849 184.21051,55.9135811 185.84789,55.9135811 C187.475338,55.9135811 188.159338,57.0193925 188.159338,58.3481094 C188.159338,58.4875811 188.149407,58.6519585 188.125821,58.8499585" id="Fill-29" fill="#0093D6" mask="url(#mask-4)"></path>
                <path d="M193.350786,61.809 L193.350786,58.0681698 C193.350786,57.2525094 193.129821,56.7743208 192.36389,56.7743208 C191.411752,56.7743208 190.72651,57.7419057 190.72651,59.0245472 L190.72651,61.809 L189.680028,61.809 L189.680028,56.0171887 L190.69051,56.0171887 C190.69051,56.3546604 190.668166,56.8926226 190.597407,57.2300943 L190.622234,57.2425472 C190.958648,56.4368491 191.667476,55.9013774 192.653131,55.9013774 C193.978924,55.9013774 194.397269,56.7282453 194.397269,57.7531132 L194.397269,61.809 L193.350786,61.809 Z" id="Fill-30" fill="#0093D6" mask="url(#mask-4)"></path>
                <path d="M198.379366,56.6819208 C197.624607,56.6819208 197.089572,57.2522604 196.974124,58.104034 L199.669159,58.104034 C199.692745,57.2522604 199.191228,56.6819208 198.379366,56.6819208 M200.703228,58.8499585 L196.926952,58.8499585 C196.881021,60.3990906 197.520331,61.0628264 198.750538,61.0628264 C199.343917,61.0628264 199.969572,60.9233547 200.43509,60.7029396 L200.528193,61.5534679 C199.969572,61.7863358 199.296745,61.9133547 198.576745,61.9133547 C196.800331,61.9133547 195.846952,60.981883 195.846952,58.9421094 C195.846952,57.2061849 196.787917,55.9135811 198.425297,55.9135811 C200.051503,55.9135811 200.737986,57.0193925 200.737986,58.3481094 C200.737986,58.4875811 200.726814,58.6519585 200.703228,58.8499585" id="Fill-31" fill="#0093D6" mask="url(#mask-4)"></path>
                <path d="M205.103917,56.9384491 C203.884883,56.7292415 203.302676,57.6258453 203.302676,59.4788264 L203.302676,61.8099962 L202.258676,61.8099962 L202.258676,56.0169396 L203.267917,56.0169396 C203.267917,56.379317 203.2344,56.9147887 203.141297,57.3929774 L203.164883,57.3929774 C203.409434,56.5897698 204.000331,55.7840717 205.15109,55.9123358 L205.103917,56.9384491 Z" id="Fill-32" fill="#0093D6" mask="url(#mask-4)"></path>
                <path d="M208.541917,56.6935019 C207.623297,56.6935019 207.07709,57.2638415 207.07709,58.044634 C207.07709,58.9076151 207.59971,59.3745962 208.507159,59.3745962 C209.377366,59.3745962 209.934745,58.8964075 209.934745,58.044634 C209.934745,57.1953509 209.424538,56.6935019 208.541917,56.6935019 M209.121641,61.8676528 L207.645641,61.8676528 C207.193779,62.1005208 206.904538,62.4840679 206.904538,62.928634 C206.904538,63.6160302 207.553779,63.9871245 208.459986,63.9871245 C209.645503,63.9871245 210.329503,63.487766 210.329503,62.7767094 C210.329503,62.2175774 209.934745,61.8676528 209.121641,61.8676528 M208.298607,64.8276906 C206.810193,64.8276906 205.869228,64.2324453 205.869228,63.126634 C205.869228,62.4379925 206.309917,61.8913132 206.821366,61.6223321 C206.473779,61.4604453 206.252814,61.1565962 206.252814,60.7730491 C206.252814,60.3645962 206.497366,59.9910113 206.904538,59.8054642 C206.333503,59.4779547 206.055434,58.8839547 206.055434,58.1492377 C206.055434,56.9263698 206.971572,55.9139547 208.586607,55.9139547 C208.925503,55.9139547 209.191159,55.9475774 209.494055,56.0185585 L211.457917,56.0185585 L211.457917,56.8454264 L210.480952,56.8454264 C210.783848,57.0795396 210.970055,57.4855019 210.970055,57.9761434 C210.970055,59.2214264 210.109779,60.1317283 208.459986,60.1317283 C208.215434,60.1317283 207.924952,60.0956151 207.727572,60.0619925 C207.47309,60.1665962 207.3564,60.3521434 207.3564,60.5376906 C207.3564,60.8664453 207.645641,60.9947094 208.343297,60.9947094 L209.412124,60.9947094 C210.667159,60.9947094 211.363572,61.5986717 211.363572,62.6484453 C211.363572,63.8713132 210.109779,64.8276906 208.298607,64.8276906" id="Fill-33" fill="#0093D6" mask="url(#mask-4)"></path>
                <path d="M214.929434,62.3920415 C214.255366,64.1852491 213.7104,64.7692868 212.431779,64.7692868 C212.212055,64.7692868 211.907917,64.7344189 211.675779,64.6995509 L211.768883,63.7556264 C212.013434,63.8365698 212.245572,63.872683 212.51371,63.872683 C213.150538,63.872683 213.489434,63.5812868 213.894124,62.4617774 L214.137434,61.8104943 L211.95509,56.0174377 L213.140607,56.0174377 L214.231779,59.0247962 C214.417986,59.5478151 214.544607,60.0035887 214.672469,60.4568717 L214.696055,60.4568717 C214.801572,60.0496642 215.044883,59.3161925 215.265848,58.6748717 L216.195641,56.0174377 L217.333986,56.0174377 L214.929434,62.3920415 Z" id="Fill-34" fill="#0093D6" mask="url(#mask-4)"></path>
                <path d="M223.96469,59.1408566 C221.954897,59.1408566 221.512966,59.758517 221.512966,60.2827811 C221.512966,60.7721774 221.861793,61.0859887 222.395586,61.0859887 C223.336552,61.0859887 223.96469,60.1532717 223.96469,59.2454604 L223.96469,59.1408566 Z M224.023034,61.8094981 C224.023034,61.4010453 224.023034,60.9826302 224.080138,60.6551208 L224.057793,60.6551208 C223.778483,61.3661774 223.04731,61.9153472 222.093931,61.9153472 C221.141793,61.9153472 220.49131,61.4010453 220.49131,60.4807811 C220.49131,59.2093472 221.779862,58.4061396 223.96469,58.4061396 L223.96469,57.9752717 C223.96469,57.1720642 223.650621,56.7399509 222.697241,56.7399509 C222.152276,56.7399509 221.455862,56.9155358 220.955586,57.2181396 L220.850069,56.3202906 C221.40869,56.0874226 222.106345,55.9006302 222.872276,55.9006302 C224.533241,55.9006302 225.009931,56.6814226 225.009931,57.8358 L225.009931,60.1420642 C225.009931,60.6899887 225.022345,61.3076491 225.032276,61.8094981 L224.023034,61.8094981 Z" id="Fill-35" fill="#0093D6" mask="url(#mask-4)"></path>
                <path d="M233.163434,61.809 L231.990331,61.809 L230.839572,58.394434 C230.722883,58.0333019 230.618607,57.6497547 230.514331,57.2425472 L230.501917,57.2425472 C230.386469,57.7531132 230.247434,58.2088868 230.094745,58.6970377 L229.132676,61.809 L227.970745,61.809 L226.19309,56.0171887 L227.343848,56.0171887 L228.225228,59.1054906 C228.376676,59.6422075 228.528124,60.1664717 228.643572,60.621 L228.655986,60.621 C228.771434,60.1079434 228.899297,59.6073396 229.050745,59.1291509 L230.037641,56.0171887 L231.153641,56.0171887 L232.152952,59.094283 C232.38509,59.8165472 232.489366,60.1888868 232.594883,60.6322075 L232.606055,60.6322075 C232.722745,60.1440566 232.827021,59.7243962 232.999572,59.1403585 L233.929366,56.0171887 L235.032952,56.0171887 L233.163434,61.809 Z" id="Fill-36" fill="#0093D6" mask="url(#mask-4)"></path>
                <path d="M239.224841,59.1408566 C237.215048,59.1408566 236.773117,59.758517 236.773117,60.2827811 C236.773117,60.7721774 237.121945,61.0859887 237.655738,61.0859887 C238.596703,61.0859887 239.224841,60.1532717 239.224841,59.2454604 L239.224841,59.1408566 Z M239.283186,61.8094981 C239.283186,61.4010453 239.283186,60.9826302 239.341531,60.6551208 L239.317945,60.6551208 C239.038634,61.3661774 238.307462,61.9153472 237.355324,61.9153472 C236.403186,61.9153472 235.751462,61.4010453 235.751462,60.4807811 C235.751462,59.2093472 237.041255,58.4061396 239.224841,58.4061396 L239.224841,57.9752717 C239.224841,57.1720642 238.910772,56.7399509 237.957393,56.7399509 C237.412428,56.7399509 236.716014,56.9155358 236.215738,57.2181396 L236.111462,56.3202906 C236.670083,56.0874226 237.366497,55.9006302 238.132428,55.9006302 C239.793393,55.9006302 240.271324,56.6814226 240.271324,57.8358 L240.271324,60.1420642 C240.271324,60.6899887 240.282497,61.3076491 240.293669,61.8094981 L239.283186,61.8094981 Z" id="Fill-37" fill="#0093D6" mask="url(#mask-4)"></path>
                <path d="M245.100786,56.9384491 C243.881752,56.7292415 243.302028,57.6258453 243.302028,59.4788264 L243.302028,61.8099962 L242.255545,61.8099962 L242.255545,56.0169396 L243.264786,56.0169396 C243.264786,56.379317 243.231269,56.9147887 243.138166,57.3929774 L243.161752,57.3929774 C243.405062,56.5897698 243.9972,55.7840717 245.146717,55.9123358 L245.100786,56.9384491 Z" id="Fill-38" fill="#0093D6" mask="url(#mask-4)"></path>
                <path d="M249.827462,56.8916264 C249.479876,56.7982302 249.129807,56.7633623 248.805807,56.7633623 C247.700979,56.7633623 246.971048,57.4283434 246.971048,59.0932868 C246.971048,60.3410604 247.375738,61.0508717 248.248428,61.0508717 C249.292428,61.0508717 249.827462,59.8280038 249.827462,58.8143434 L249.827462,56.8916264 Z M249.862221,61.8092491 C249.862221,61.4829849 249.887048,60.9699283 249.956566,60.6324566 L249.932979,60.6212491 C249.606497,61.4020415 248.897669,61.9138528 247.991462,61.9138528 C246.575048,61.9138528 245.866221,60.8777774 245.866221,59.186683 C245.866221,57.1593623 247.028152,55.9352491 248.851738,55.9352491 C249.165807,55.9352491 249.479876,55.9601547 249.827462,55.9937774 L249.827462,53.3027208 L250.873945,53.3027208 L250.873945,61.8092491 L249.862221,61.8092491 Z" id="Fill-39" fill="#0093D6" mask="url(#mask-4)"></path>
                <path d="M137.262041,43.2221547 L137.262041,46.9966075 L135.853076,46.9966075 L135.853076,43.2221547 L132.601903,36.5125698 L134.166041,36.5125698 L135.807145,40.0230226 C136.10011,40.6444189 136.349628,41.2496264 136.581766,41.8411358 L136.596662,41.8411358 C136.843697,41.2035509 137.154041,40.5198906 137.479283,39.8374755 L139.073214,36.5125698 L140.576524,36.5125698 L137.262041,43.2221547 Z" id="Fill-40" fill="#152935" mask="url(#mask-4)"></path>
                <path d="M144.540621,46.996234 L143.069586,46.996234 L140.205724,39.2779698 L141.783517,39.2779698 L143.393586,43.8444226 C143.564897,44.3400453 143.687793,44.7908377 143.842966,45.3499698 L143.859103,45.3499698 C143.983241,44.8219698 144.106138,44.3711774 144.277448,43.9054415 L145.933448,39.2779698 L147.435517,39.2779698 L144.540621,46.996234 Z" id="Fill-41" fill="#152935" mask="url(#mask-4)"></path>
                <path d="M151.477324,40.1781849 C150.470566,40.1781849 149.759255,40.9241094 149.589186,42.057317 L153.197876,42.057317 C153.227669,40.9241094 152.56229,40.1781849 151.477324,40.1781849 M154.574566,43.0361094 L149.542014,43.0361094 C149.481186,45.1032792 150.332772,46.0023736 151.957738,46.0023736 C152.747255,46.0023736 153.646014,45.8168264 154.280359,45.5216943 L154.280359,46.6872792 C153.536772,46.981166 152.700083,47.1355811 151.741738,47.1355811 C149.371945,47.1355811 148.102014,45.8927887 148.102014,43.1755811 C148.102014,40.8606 149.357048,39.1383736 151.540634,39.1383736 C153.706841,39.1383736 154.621738,40.6127887 154.621738,42.3835811 C154.621738,42.6015057 154.6056,42.7559208 154.574566,43.0361094" id="Fill-42" fill="#152935" mask="url(#mask-4)"></path>
                <path d="M157.981159,43.9061887 L157.981159,46.9969811 L156.604469,46.9969811 L156.604469,39.2774717 L157.951366,39.2774717 C157.951366,39.7270189 157.91909,40.4268679 157.827228,40.9386792 L157.857021,40.9536226 C158.105297,40.0233962 158.90971,38.9810943 160.427917,39.1367547 L160.427917,40.4878868 C158.817848,40.2101887 157.981159,41.2188679 157.981159,43.9061887" id="Fill-43" fill="#152935" mask="url(#mask-4)"></path>
                <path d="M166.684221,40.4421849 C166.219945,40.3176566 165.755669,40.2703358 165.321186,40.2703358 C163.850152,40.2703358 162.875669,41.1557321 162.875669,43.377317 C162.875669,45.0397698 163.415669,45.9874302 164.578841,45.9874302 C165.97291,45.9874302 166.684221,44.3561094 166.684221,43.0049774 L166.684221,40.4421849 Z M166.730152,46.9973547 C166.730152,46.5627509 166.761186,45.8790906 166.855531,45.4282981 L166.823255,45.4133547 C166.391255,46.4842981 165.445324,47.1368264 164.237462,47.1368264 C162.349324,47.1368264 161.404634,45.7545623 161.404634,43.5030906 C161.404634,40.7995811 162.951393,39.1682604 165.383255,39.1682604 C165.8016,39.1682604 166.203807,39.1844491 166.699117,39.2467132 L166.699117,35.6590528 L168.077048,35.6590528 L168.077048,46.9973547 L166.730152,46.9973547 Z" id="Fill-44" fill="#152935" mask="url(#mask-4)"></path>
                <path d="M173.574869,40.2870226 C172.46011,40.2870226 171.376386,41.1250981 171.376386,43.0976264 C171.376386,44.9618151 172.151007,45.9717396 173.574869,45.9717396 C174.735559,45.9717396 175.727421,45.0714 175.727421,43.082683 C175.727421,41.3118906 175.014869,40.2870226 173.574869,40.2870226 M173.4048,47.1360792 C171.329214,47.1360792 169.982317,45.9406075 169.982317,43.1760792 C169.982317,40.8934755 171.407421,39.1388717 173.699007,39.1388717 C175.634317,39.1388717 177.120248,40.1936264 177.120248,43.0042302 C177.120248,45.3652868 175.665352,47.1360792 173.4048,47.1360792" id="Fill-45" fill="#152935" mask="url(#mask-4)"></path>
                <path d="M183.918041,46.996234 L183.918041,42.0424981 C183.918041,40.924234 183.607697,40.2717057 182.571145,40.2717057 C181.317352,40.2717057 180.404938,41.5294415 180.404938,43.2852906 L180.404938,46.996234 L179.025766,46.996234 L179.025766,39.2779698 L180.372662,39.2779698 C180.372662,39.727517 180.341628,40.4423094 180.264662,40.8918566 L180.295697,40.9092906 C180.728938,39.8358566 181.672386,39.1223094 182.98949,39.1223094 C184.738593,39.1223094 185.295972,40.2243849 185.295972,41.6228377 L185.295972,46.996234 L183.918041,46.996234 Z" id="Fill-46" fill="#152935" mask="url(#mask-4)"></path>
                <polygon id="Fill-47" fill="#152935" mask="url(#mask-4)" points="187.325379 43.6573811 190.978759 43.6573811 190.978759 42.539117 187.325379 42.539117"></polygon>
                <polygon id="Fill-48" fill="#152935" mask="url(#mask-4)" points="193.007172 46.9972302 194.383862 46.9972302 194.383862 35.6589283 193.007172 35.6589283"></polygon>
                <path d="M199.69709,40.1781849 C198.690331,40.1781849 197.977779,40.9241094 197.808952,42.057317 L201.4164,42.057317 C201.447434,40.9241094 200.780814,40.1781849 199.69709,40.1781849 M202.794331,43.0361094 L197.761779,43.0361094 C197.69971,45.1032792 198.551297,46.0023736 200.177503,46.0023736 C200.967021,46.0023736 201.865779,45.8168264 202.500124,45.5216943 L202.500124,46.6872792 C201.756538,46.981166 200.919848,47.1355811 199.960262,47.1355811 C197.59171,47.1355811 196.321779,45.8927887 196.321779,43.1755811 C196.321779,40.8606 197.575572,39.1383736 199.7604,39.1383736 C201.926607,39.1383736 202.839021,40.6127887 202.839021,42.3835811 C202.839021,42.6015057 202.825366,42.7559208 202.794331,43.0361094" id="Fill-49" fill="#152935" mask="url(#mask-4)"></path>
                <path d="M206.123462,47.1360792 C205.487876,47.1360792 204.900703,47.0750604 204.451324,46.9343434 L204.497255,45.6915509 C204.9156,45.8783434 205.566083,46.0028717 206.169393,46.0028717 C207.223324,46.0028717 207.919738,45.5209472 207.919738,44.7912113 C207.919738,43.0527962 204.281255,44.1536264 204.281255,41.4364189 C204.281255,40.1002302 205.350083,39.1376264 207.269255,39.1376264 C207.764566,39.1376264 208.338083,39.1998906 208.864428,39.3244189 L208.833393,40.4725698 C208.292152,40.2870226 207.780703,40.1936264 207.223324,40.1936264 C206.169393,40.1936264 205.64429,40.6444189 205.64429,41.326834 C205.64429,43.0527962 209.29891,42.0889472 209.29891,44.6367962 C209.29891,46.0489472 208.091048,47.1360792 206.123462,47.1360792" id="Fill-50" fill="#152935" mask="url(#mask-4)"></path>
                <polygon id="Fill-51" fill="#152935" mask="url(#mask-4)" points="210.830897 43.6573811 214.484276 43.6573811 214.484276 42.539117 210.830897 42.539117"></polygon>
                <path d="M218.913021,42.1197057 C218.742952,42.1197057 218.185572,42.1197057 217.939779,42.1358943 L217.939779,45.8007623 C218.216607,45.8468377 218.665986,45.8792151 219.269297,45.8792151 C220.97371,45.8792151 221.730952,45.0548377 221.730952,43.9066868 C221.730952,42.5555547 220.524331,42.1197057 218.913021,42.1197057 M219.3624,37.6167623 C218.868331,37.6167623 218.370538,37.6317057 217.939779,37.6466491 L217.939779,41.0325736 C218.247641,41.047517 218.510814,41.047517 218.898124,41.047517 C220.617434,41.047517 221.516193,40.3638566 221.516193,39.2157057 C221.516193,38.2829887 221.034538,37.6167623 219.3624,37.6167623 M219.193572,47.0435547 C218.572883,47.0435547 217.551228,47.0124226 216.529572,46.9974792 L216.529572,36.5134415 C217.286814,36.4972528 218.340745,36.4661208 219.610676,36.4661208 C221.887366,36.4661208 222.985986,37.4137811 222.985986,38.9828377 C222.985986,40.0861585 222.2424,41.0624604 221.111503,41.4198566 L221.111503,41.452234 C222.567641,41.7000453 223.218124,42.772234 223.218124,43.859366 C223.218124,45.1171019 222.4584,47.0435547 219.193572,47.0435547" id="Fill-52" fill="#152935" mask="url(#mask-4)"></path>
                <path d="M229.118028,43.3936302 C226.530993,43.3936302 225.866855,44.2317057 225.866855,44.9776302 C225.866855,45.6152151 226.316234,46.0348755 226.99651,46.0348755 C228.298717,46.0348755 229.118028,44.7908377 229.118028,43.5480453 L229.118028,43.3936302 Z M229.180097,46.996234 C229.180097,46.4532906 229.180097,45.8929132 229.257062,45.4744981 L229.226028,45.4744981 C228.88589,46.4059698 227.895269,47.1369509 226.641476,47.1369509 C225.247407,47.1369509 224.503821,46.3586491 224.503821,45.2266868 C224.503821,43.5181585 226.238028,42.4459698 229.118028,42.4459698 L229.118028,41.9179698 C229.118028,40.8607245 228.730717,40.2717057 227.430993,40.2717057 C226.702303,40.2717057 225.726579,40.5357057 225.014028,40.9703094 L225.014028,39.6664981 C225.757614,39.371366 226.641476,39.1384981 227.599821,39.1384981 C229.829338,39.1384981 230.510855,40.1471774 230.510855,41.7623094 C230.510855,43.1296302 230.481062,43.9838943 230.481062,44.7746491 C230.481062,45.443366 230.494717,46.2826868 230.54189,46.996234 L229.180097,46.996234 Z" id="Fill-53" fill="#152935" mask="url(#mask-4)"></path>
                <path d="M233.097517,46.9972302 L234.474207,46.9972302 L234.474207,39.2777208 L233.097517,39.2777208 L233.097517,46.9972302 Z M234.723724,37.0885132 C234.723724,37.5841358 234.305379,38.0037962 233.793931,38.0037962 C233.283724,38.0037962 232.865379,37.5990792 232.865379,37.0885132 C232.865379,36.5904 233.283724,36.1869283 233.793931,36.1869283 C234.305379,36.1869283 234.723724,36.5754566 234.723724,37.0885132 Z" id="Fill-54" fill="#152935" mask="url(#mask-4)"></path>
                <path d="M241.969531,46.996234 L241.969531,42.0424981 C241.969531,40.924234 241.660428,40.2717057 240.622634,40.2717057 C239.368841,40.2717057 238.456428,41.5294415 238.456428,43.2852906 L238.456428,46.996234 L237.077255,46.996234 L237.077255,39.2779698 L238.425393,39.2779698 C238.425393,39.727517 238.393117,40.4423094 238.316152,40.8918566 L238.345945,40.9092906 C238.780428,39.8358566 239.725117,39.1223094 241.040979,39.1223094 C242.790083,39.1223094 243.347462,40.2243849 243.347462,41.6228377 L243.347462,46.996234 L241.969531,46.996234 Z" id="Fill-55" fill="#152935" mask="url(#mask-4)"></path>
                <path d="M247.250234,47.1360792 C246.614648,47.1360792 246.027476,47.0750604 245.578097,46.9343434 L245.624028,45.6915509 C246.042372,45.8783434 246.694097,46.0028717 247.296166,46.0028717 C248.350097,46.0028717 249.047752,45.5209472 249.047752,44.7912113 C249.047752,43.0527962 245.408028,44.1536264 245.408028,41.4364189 C245.408028,40.1002302 246.476855,39.1376264 248.396028,39.1376264 C248.891338,39.1376264 249.464855,39.1998906 249.9912,39.3244189 L249.961407,40.4725698 C249.418924,40.2870226 248.907476,40.1936264 248.350097,40.1936264 C247.296166,40.1936264 246.771062,40.6444189 246.771062,41.326834 C246.771062,43.0527962 250.425683,42.0889472 250.425683,44.6367962 C250.425683,46.0489472 249.217821,47.1360792 247.250234,47.1360792" id="Fill-56" fill="#152935" mask="url(#mask-4)"></path>
            </g>
        </g>
    </g>
</svg>