<?xml version="1.0" encoding="UTF-8"?>
<svg width="24px" height="24px" viewBox="0 0 24 24" version="1.1" xmlns="http://www.w3.org/2000/svg" xmlns:xlink="http://www.w3.org/1999/xlink">
    <!-- Generator: Sketch 52.4 (67378) - http://www.bohemiancoding.com/sketch -->
    <title>legal-scale-document</title>
    <desc>Created with Sketch.</desc>
    <g id="Page-1" stroke="none" stroke-width="1" fill="none" fill-rule="evenodd">
        <g id="legal-scale-document" fill="#008C6F">
            <path d="M12.5,24 C12.224,24 12,23.776 12,23.5 C12,23.224 12.224,23 12.5,23 L15,23 L15,13.434 C14.302,13.252 13.747,12.698 13.566,12 L10.71,12 L12.971,18.332 C12.986,18.373 12.988,18.408 12.989,18.425 C12.989,18.425 12.989,18.425 12.989,18.425 C12.991,18.425 13,18.458 13,18.5 C13,18.506 13,18.513 12.999,18.521 C12.987,20.165 11.642,21.5 10,21.5 C8.356,21.5 7.01,20.162 7.001,18.518 C7,18.457 7.009,18.423 7.014,18.407 C7.014,18.407 7.014,18.407 7.014,18.407 C7.012,18.407 7.015,18.373 7.029,18.333 L9.291,12 L9,12 C8.724,12 8.5,11.776 8.5,11.5 C8.5,11.224 8.724,11 9,11 L13.566,11 C13.791,10.131 14.587,9.5 15.5,9.5 C16.413,9.5 17.209,10.131 17.434,11 L22,11 C22.276,11 22.5,11.224 22.5,11.5 C22.5,11.776 22.276,12 22,12 L21.709,12 L23.97,18.332 C23.985,18.373 23.987,18.408 23.988,18.425 C23.988,18.425 23.988,18.425 23.988,18.425 C23.99,18.425 23.999,18.458 23.999,18.5 C23.999,18.506 23.999,18.513 23.998,18.521 C23.987,20.165 22.643,21.5 21,21.5 C19.356,21.5 18.01,20.162 18.001,18.518 C18,18.456 18.01,18.422 18.014,18.406 C18.012,18.406 18.015,18.372 18.029,18.333 L20.291,12 L17.435,12 C17.253,12.698 16.699,13.253 16.001,13.434 L16.001,23 L18.501,23 C18.777,23 19.001,23.224 19.001,23.5 C19.001,23.776 18.776,24 18.5,24 L12.5,24 Z M19.063,19 C19.286,19.872 20.075,20.5 21,20.5 C21.925,20.5 22.714,19.872 22.937,19 L19.063,19 Z M8.063,19 C8.286,19.872 9.075,20.5 10,20.5 C10.925,20.5 11.714,19.872 11.937,19 L8.063,19 Z M22.791,18 L21,12.987 L19.209,18 L22.791,18 Z M11.791,18 L10,12.987 L8.209,18 L11.791,18 Z M15.5,10.5 C14.948,10.5 14.5,10.949 14.5,11.5 C14.5,12.051 14.948,12.5 15.5,12.5 C16.052,12.5 16.5,12.051 16.5,11.5 C16.5,10.949 16.052,10.5 15.5,10.5 Z" id="Shape" fill-rule="nonzero"></path>
            <path d="M1.5,24 C0.673,24 0,23.327 0,22.5 L0,1.5 C0,0.673 0.673,0 1.5,0 L10.5,0 C10.916,0.022 11.309,0.117 11.683,0.283 C11.689,0.284 11.711,0.295 11.733,0.307 C12.024,0.44 12.3,0.62 12.54,0.835 L16.145,4.44 C16.373,4.693 16.555,4.972 16.697,5.278 C16.702,5.286 16.714,5.31 16.723,5.336 C16.882,5.689 16.977,6.078 16.998,6.474 L17,8 C17,8.276 16.776,8.5 16.5,8.5 C16.224,8.5 16,8.276 16,8 L16,6.5 C15.991,6.339 15.96,6.17 15.908,6 L12.5,6 C11.673,6 11,5.327 11,4.5 L11,1.093 C10.826,1.041 10.649,1.009 10.473,1 L1.5,1 C1.224,1 1,1.224 1,1.5 L1,22.5 C1,22.776 1.224,23 1.5,23 L9.5,23 C9.776,23 10,23.224 10,23.5 C10,23.776 9.776,24 9.5,24 L1.5,24 Z M12,4.5 C12,4.776 12.224,5 12.5,5 L15.294,5 L12,1.707 L12,4.5 Z" id="Shape" fill-rule="nonzero"></path>
            <path d="M3.5,6 C3.224,6 3,5.776 3,5.5 C3,5.224 3.224,5 3.5,5 L6,5 C6.276,5 6.5,5.224 6.5,5.5 C6.5,5.776 6.276,6 6,6 L3.5,6 Z" id="Path"></path>
            <path d="M3.5,9 C3.224,9 3,8.776 3,8.5 C3,8.224 3.224,8 3.5,8 L9,8 C9.276,8 9.5,8.224 9.5,8.5 C9.5,8.776 9.276,9 9,9 L3.5,9 Z" id="Path"></path>
        </g>
    </g>
</svg>