<?xml version="1.0" encoding="UTF-8"?>
<svg width="26px" height="26px" viewBox="0 0 26 26" version="1.1" xmlns="http://www.w3.org/2000/svg" xmlns:xlink="http://www.w3.org/1999/xlink">
    <!-- Generator: Sketch 52.4 (67378) - http://www.bohemiancoding.com/sketch -->
    <title>light-bulb-1</title>
    <desc>Created with Sketch.</desc>
    <g id="light-bulb-1" stroke="none" stroke-width="1" fill="none" fill-rule="evenodd">
        <g transform="translate(4.000000, 1.000000)" fill="#008C6F" fill-rule="nonzero" id="Shape">
            <path d="M9.015,24 C8.739,24 8.515,23.776 8.515,23.5 L8.515,22.957 C7.096,22.716 6.015,21.459 6.015,20 L6.015,17.86 C2.296,16.554 -0.162,12.928 0.015,8.978 C0.015,6.594 0.952,4.338 2.654,2.638 C4.356,0.937 6.615,0 9.015,0 C13.978,0 18.015,4.037 18.015,9 C18.192,12.932 15.734,16.553 12.015,17.86 L12.015,20 C12.015,21.459 10.934,22.716 9.515,22.957 L9.515,23.5 C9.515,23.776 9.29,24 9.015,24 Z M7.015,20 C7.015,21.103 7.912,22 9.015,22 C10.118,22 11.015,21.103 11.015,20 L7.015,20 Z M11.015,19 L11.015,18 L7.015,18 L7.015,19 L11.015,19 Z M11.437,17 C14.885,15.913 17.178,12.638 17.015,9.022 C17.015,4.593 13.426,1 9.015,1 C4.604,1 1.015,4.589 1.015,9 C0.852,12.633 3.144,15.912 6.593,17 L7.015,17 L7.015,11 L6.015,11 C4.912,11 4.015,10.103 4.015,9 C4.015,7.897 4.912,7 6.015,7 C7.118,7 8.015,7.897 8.015,9 L8.015,10 L10.015,10 L10.015,9 C10.015,7.897 10.912,7 12.015,7 C13.118,7 14.015,7.897 14.015,9 C14.015,10.103 13.118,11 12.015,11 L11.015,11 L11.015,17 L11.437,17 Z M10.015,17 L10.015,11 L8.015,11 L8.015,17 L10.015,17 Z M12.015,10 C12.567,10 13.015,9.551 13.015,9 C13.015,8.449 12.567,8 12.015,8 C11.463,8 11.015,8.449 11.015,9 L11.015,10 L12.015,10 Z M6.015,8 C5.464,8 5.015,8.449 5.015,9 C5.015,9.551 5.464,10 6.015,10 L7.015,10 L7.015,9 C7.015,8.449 6.566,8 6.015,8 Z"></path>
        </g>
    </g>
</svg>