<?xml version="1.0" encoding="utf-8"?>
<!-- Generator: Adobe Illustrator 26.0.2, SVG Export Plug-In . SVG Version: 6.00 Build 0)  -->
<svg version="1.1" id="Calque_1" xmlns="http://www.w3.org/2000/svg" xmlns:xlink="http://www.w3.org/1999/xlink" x="0px" y="0px"
	 viewBox="0 0 366 73.2" style="enable-background:new 0 0 366 73.2;" xml:space="preserve">
<style type="text/css">
	.st0{filter:url(#Adobe_OpacityMaskFilter);}
	.st1{fill-rule:evenodd;clip-rule:evenodd;fill:#FFFFFF;}
	.st2{mask:url(#mask-2_00000119806108997078160700000015357584539591056548_);fill-rule:evenodd;clip-rule:evenodd;fill:#008C6F;}
</style>
<desc>Created with Sketch.</desc>
<g id="YLB---Refonte-site---Design">
	<g id="Logo-YLB---2">
		<g>
			<g id="Clip-2">
			</g>
			<defs>
				<filter id="Adobe_OpacityMaskFilter" filterUnits="userSpaceOnUse" x="0" y="0" width="366" height="73.2">
					<feColorMatrix  type="matrix" values="1 0 0 0 0  0 1 0 0 0  0 0 1 0 0  0 0 0 1 0"/>
				</filter>
			</defs>
			
				<mask maskUnits="userSpaceOnUse" x="0" y="0" width="366" height="73.2" id="mask-2_00000119806108997078160700000015357584539591056548_">
				<g class="st0">
					<polygon id="path-1_00000143581343764295954960000004046296936283999652_" class="st1" points="0,0 366,0 366,73.3 0,73.3 
											"/>
				</g>
			</mask>
			<path id="Fill-1" class="st2" d="M178.7,38.5c0-2.1,0.8-4.3,3.5-4.3c0.5,0,1.1,0.3,1.3,0.3v-3.5h-0.8c-1.9,0-3.5,1.1-4.3,2.7
				v-2.4h-3.5v13.5h3.8V38.5z M190,44.9c1.6,0,3.2-0.5,4-2.1v1.9h3.5V26.1h-3.8v6.7c-0.8-1.3-2.4-1.9-3.8-1.9c-4,0-5.9,3.2-5.9,6.7
				C184.1,41.4,186,44.9,190,44.9z M190.8,33.6c2.4,0,3.2,2.1,3.2,4.3c0,2.2-0.8,4.3-3.2,4.3c-2.1,0-3.2-2.1-3.2-4.3
				C187.6,35.8,188.4,33.6,190.8,33.6z M149.9,44.7h4.3l4.3-13.5H155l-3,9.1l-2.7-9.1h-4L149.9,44.7z M136.2,44.7h4v-7.3l6.7-11.3
				h-4.6l-4.3,7.3l-4.3-7.3h-4.6l7,11.3V44.7z M166.3,44.9c3,0,5.1-1.3,6.2-4.6h-3.2c-0.3,0.8-1.3,1.9-3,1.9c-1.9,0-3-1.1-3.2-3.5
				h9.7c0.3-4-1.9-7.8-6.5-7.8c-4,0-6.7,3-6.7,7S162,44.9,166.3,44.9z M166.3,33.6c1.6,0,2.4,1.1,2.7,3h-5.9
				C163.1,35.5,163.9,33.6,166.3,33.6z M0,73.2h366V0H0V73.2z M115.2,4.6c-5.7,0.5-9.4,3.2-15.9,3.2c-6.2,0-10-2.7-15.6-3.2H115.2z
				 M78.3,4.6c-5.7,0.5-9.7,3.2-15.9,3.2c-6.2,0-10.2-2.7-15.9-3.2H78.3z M41.2,4.6c-5.7,0.5-9.4,3.2-15.6,3.2
				c-6.5,0-10.2-2.7-15.9-3.2H41.2z M4.6,68.6v-3.5c0.8-0.3,1.6-0.3,2.4-0.3c6.5,0,10.2,3,16.1,3.8H4.6z M28,68.6
				c5.7-0.8,9.7-3.8,15.9-3.8c6.5,0,10.2,3,16.1,3.8H28z M64.9,68.6c5.7-0.8,9.7-3.8,16.1-3.8c6.2,0,10.2,3,15.9,3.8H64.9z
				 M120.3,68.6h-18.6c5.9-0.8,9.7-3.8,16.2-3.8c0.8,0,1.6,0,2.4,0.3V68.6z M120.3,56.8h-2.4c-7.3,0-11.3,3.8-18.6,3.8
				c-7.3,0-11-3.8-18.3-3.8c-7.3,0-11.3,3.8-18.6,3.8c-7.3,0-11.3-3.8-18.6-3.8c-7.3,0-11,3.8-18.3,3.8c-7.3,0-11.3-3.8-18.6-3.8
				H4.6v-4.8c0.8,0,1.6-0.3,2.4-0.3c7.3,0,11.3,3.8,18.6,3.8c7.3,0,11-3.8,18.3-3.8c7.3,0,11.3,3.8,18.6,3.8
				c7.3,0,11.3-3.8,18.6-3.8c7.3,0,11,3.8,18.3,3.8c7.3,0,11.3-3.8,18.6-3.8c0.8,0,1.6,0.3,2.4,0.3V56.8z M120.3,43.8
				c-0.8-0.3-1.6-0.3-2.4-0.3c-7.3,0-11.3,3.8-18.6,3.8c-7.3,0-11-3.8-18.3-3.8c-7.3,0-11.3,3.8-18.6,3.8c-7.3,0-11.3-3.8-18.6-3.8
				c-7.3,0-11,3.8-18.3,3.8c-7.3,0-11.3-3.8-18.6-3.8c-0.8,0-1.6,0-2.4,0.3v-5.1H7c7.3,0,11.3,3.5,18.6,3.5c7.3,0,11-3.5,18.3-3.5
				c7.3,0,11.3,3.5,18.6,3.5c7.3,0,11.3-3.5,18.6-3.5c7.3,0,11,3.5,18.3,3.5c7.3,0,11.3-3.5,18.6-3.5h2.4V43.8z M120.3,30.7
				c-0.8-0.3-1.6-0.3-2.4-0.3c-7.3,0-11.3,3.8-18.6,3.8c-7.3,0-11-3.8-18.3-3.8c-7.3,0-11.3,3.8-18.6,3.8c-7.3,0-11.3-3.8-18.6-3.8
				c-7.3,0-11,3.8-18.3,3.8c-7.3,0-11.3-3.8-18.6-3.8c-0.8,0-1.6,0-2.4,0.3v-4.8c0.8-0.3,1.6-0.3,2.4-0.3c7.3,0,11.3,3.5,18.6,3.5
				c7.3,0,11-3.5,18.3-3.5c7.3,0,11.3,3.5,18.6,3.5c7.3,0,11.3-3.5,18.6-3.5c7.3,0,11,3.5,18.3,3.5c7.3,0,11.3-3.5,18.6-3.5
				c0.8,0,1.6,0,2.4,0.3V30.7z M120.3,17.5h-2.4c-7.3,0-11.3,3.5-18.6,3.5c-7.3,0-11-3.5-18.3-3.5c-7.3,0-11.3,3.5-18.6,3.5
				c-7.3,0-11.3-3.5-18.6-3.5c-7.3,0-11,3.5-18.3,3.5c-7.3,0-11.3-3.5-18.6-3.5H4.6v-4.8c0.8,0,1.6-0.3,2.4-0.3
				c7.3,0,11.3,3.5,18.6,3.5c7.3,0,11-3.5,18.3-3.5c7.3,0,11.3,3.5,18.6,3.5c7.3,0,11.3-3.5,18.6-3.5c7.3,0,11,3.5,18.3,3.5
				c7.3,0,11.3-3.5,18.6-3.5c0.8,0,1.6,0.3,2.4,0.3V17.5z M124.9,68.6h236.6v-64H124.9V68.6z M254.9,44.9c3,0,5.1-1.3,6.2-4.6h-3.2
				c-0.3,0.8-1.6,1.9-3,1.9c-2.1,0-3.2-1.1-3.2-3.5h9.7c0.3-4-2.2-7.8-6.5-7.8s-7,3-7,7S250.5,44.9,254.9,44.9z M254.6,33.6
				c1.9,0,2.7,1.1,3,3h-5.9C251.6,35.5,252.4,33.6,254.6,33.6z M206.7,44.9c4.3,0,7-2.7,7-7c0-4.3-2.7-7-7-7c-4,0-6.7,2.7-6.7,7
				C200,42.2,202.6,44.9,206.7,44.9z M206.7,33.6c2.7,0,3.2,2.1,3.2,4.3c0,2.2-0.5,4.3-3.2,4.3c-2.4,0-3.2-2.1-3.2-4.3
				C203.4,35.8,204.3,33.6,206.7,33.6z M231.4,39h7.8v-3h-7.8V39z M303.6,39.3c0-2.4-1.1-4-3.2-4.8c1.3-0.5,2.4-1.9,2.4-3.8
				c0-3.5-2.4-4.6-5.9-4.6h-8.6v18.6h8.9C300.3,44.7,303.6,43,303.6,39.3z M292.3,29.3h3.8c1.3,0,2.7,0.3,2.7,2.1
				c0,1.6-1.1,2.2-2.4,2.2h-4V29.3z M292.3,41.4v-5.1h4.3c1.9,0,3,0.8,3,2.7c0,1.9-1.3,2.4-3,2.4H292.3z M277.2,39h7.8v-3h-7.8V39z
				 M241.9,44.7h3.8V26.1h-3.8V44.7z M269.1,42.5c-1.6,0-3-0.5-3-2.1h-3.5c0.3,3.5,3.2,4.6,6.5,4.6c3,0,5.9-1.1,5.9-4.6
				c0-2.4-2.1-3.2-4-3.8c-2.1-0.5-4.3-0.8-4.3-2.1c0-1.1,1.3-1.1,2.2-1.1c1.3,0,2.4,0.3,2.4,1.9h3.5c-0.3-3.5-3-4.3-5.9-4.3
				c-3,0-5.9,0.8-5.9,4.3c0,2.1,2.2,3,4.3,3.5c2.7,0.5,4.3,0.8,4.3,2.1C271.5,42,270.2,42.5,269.1,42.5z M310,36.9
				c-2.4,0.3-4.6,1.1-4.6,4c0,2.7,1.9,4,4.6,4c1.6,0,3.2-0.5,4.3-1.6c0,0.5,0.3,0.8,0.3,1.3h3.8c-0.3-0.5-0.5-1.9-0.5-3v-7
				c0-3.2-3.2-3.8-5.7-3.8c-3.2,0-6.2,1.1-6.5,4.3h3.8c0-1.3,1.1-1.9,2.4-1.9c1.3,0,2.4,0.3,2.4,1.9C314.3,36.6,312.2,36.6,310,36.9
				z M314.3,39.5c0,0.5-0.3,3-3,3c-1.3,0-2.4-0.3-2.4-1.6c0-1.3,1.1-1.9,2.2-2.1c1.3,0,2.4-0.3,3.2-0.8V39.5z M331,37.7
				c0-2.7,0.8-4,3-4c1.6,0,2.4,1.3,2.4,3.5v7.5h3.5v-8.3c0-3.2-0.8-5.4-4.8-5.4c-1.6,0-3.2,0.5-4,2.1v-1.9h-3.5v13.5h3.5V37.7z
				 M320.8,29.1h3.8v-3h-3.8V29.1z M320.8,44.7h3.8V31.2h-3.8V44.7z M219.9,37.7c0-2.7,0.8-4,2.7-4c1.6,0,2.4,1.3,2.4,3.5v7.5h3.5
				v-8.3c0-3.2-0.8-5.4-4.8-5.4c-1.4,0-3,0.5-4,2.1v-1.9h-3.5v13.5h3.8V37.7z M348.5,42.5c-1.6,0-3-0.5-3-2.1H342
				c0.3,3.5,3.2,4.6,6.2,4.6c3.2,0,6.2-1.1,6.2-4.6c0-2.4-2.2-3.2-4.3-3.8c-1.9-0.5-4-0.8-4-2.1c0-1.1,1.1-1.1,2.1-1.1
				c1.1,0,2.1,0.3,2.4,1.9h3.5c-0.3-3.5-3-4.3-5.9-4.3s-5.9,0.8-5.9,4.3c0,2.1,2.1,3,4.3,3.5c2.7,0.5,4.3,0.8,4.3,2.1
				C350.9,42,349.6,42.5,348.5,42.5z"/>
		</g>
	</g>
</g>
</svg>
