<?xml version="1.0" encoding="UTF-8"?>
<svg width="26px" height="26px" viewBox="0 0 26 26" version="1.1" xmlns="http://www.w3.org/2000/svg" xmlns:xlink="http://www.w3.org/1999/xlink">
    <!-- Generator: Sketch 52.4 (67378) - http://www.bohemiancoding.com/sketch -->
    <title>office-stamp-document</title>
    <desc>Created with Sketch.</desc>
    <g id="office-stamp-document" stroke="none" stroke-width="1" fill="none" fill-rule="evenodd">
        <g transform="translate(1.000000, 1.000000)" fill="#008C6F">
            <path d="M15.5,24 C15.224,24 15,23.776 15,23.5 C15,23.224 15.224,23 15.5,23 L22.5,23 C22.776,23 23,22.776 23,22.5 L23,7 L18.5,7 C17.673,7 17,6.327 17,5.5 L17,1 L7.5,1 C7.224,1 7,1.224 7,1.5 L7,6.5 C7,6.776 6.776,7 6.5,7 C6.224,7 6,6.776 6,6.5 L6,1.5 C6,0.673 6.673,0 7.5,0 L17.5,0 C17.566,0 17.631,0.013 17.693,0.039 C17.753,0.064 17.808,0.1 17.854,0.147 L23.854,6.147 C23.9,6.193 23.937,6.247 23.962,6.308 C23.987,6.37 24,6.434 24,6.5 L24,22.5 C24,23.327 23.327,24 22.5,24 L15.5,24 Z M18,5.5 C18,5.776 18.224,6 18.5,6 L22.293,6 L18,1.707 L18,5.5 Z" id="Shape" fill-rule="nonzero"></path>
            <path d="M2.5,24 C1.673,24 1,23.327 1,22.5 L1,20.914 C0.41,20.705 0,20.14 0,19.5 C0,18.122 1.121,17 2.5,17 L4.5,17 C5.319,17 5.977,16.359 6,15.542 C6.012,15.057 5.787,14.592 5.399,14.3 C5.135,14.102 4.899,13.867 4.7,13.601 C3.542,12.057 3.856,9.859 5.4,8.701 C6.009,8.244 6.734,8.002 7.496,8.002 C8.595,8.002 9.643,8.525 10.3,9.401 C10.861,10.149 11.097,11.071 10.965,11.996 C10.833,12.92 10.348,13.739 9.6,14.3 C9.21,14.592 8.986,15.057 9,15.543 C9.023,16.36 9.682,17 10.499,17 L12.5,17 C13.878,17 15,18.122 15,19.5 C15,20.14 14.59,20.705 14,20.914 L14,22.5 C14,23.327 13.327,24 12.5,24 L2.5,24 Z M2,22.5 C2,22.776 2.224,23 2.5,23 L12.5,23 C12.776,23 13,22.776 13,22.5 L13,21 L2,21 L2,22.5 Z M2.5,18 C1.673,18 1,18.673 1,19.5 C1,19.776 1.224,20 1.5,20 L13.5,20 C13.776,20 14,19.776 14,19.5 C14,18.673 13.327,18 12.5,18 L10.5,18 C9.136,18 8.039,16.933 8,15.571 C7.977,14.76 8.351,13.986 9,13.5 C9.534,13.1 9.88,12.515 9.975,11.854 C10.069,11.193 9.901,10.534 9.5,10 C9.024,9.365 8.294,9.001 7.497,9.001 C6.953,9.001 6.435,9.174 6,9.5 C4.897,10.327 4.673,11.897 5.5,13 C5.642,13.189 5.81,13.357 6,13.5 C6.646,13.987 7.02,14.76 7,15.568 C6.962,16.932 5.864,18 4.501,18 L2.5,18 Z" id="Shape" fill-rule="nonzero"></path>
            <path d="M13,10.999 C12.724,10.999 12.5,10.775 12.5,10.499 C12.5,10.223 12.724,9.999 13,9.999 L21,9.999 C21.276,9.999 21.5,10.223 21.5,10.499 C21.5,10.775 21.276,10.999 21,10.999 L13,10.999 Z" id="Path"></path>
            <path d="M17,18.999 C16.724,18.999 16.5,18.775 16.5,18.499 C16.5,18.223 16.724,17.999 17,17.999 L21,17.999 C21.276,17.999 21.5,18.223 21.5,18.499 C21.5,18.775 21.276,18.999 21,18.999 L17,18.999 Z" id="Path"></path>
            <path d="M14.5,14.999 C14.224,14.999 14,14.775 14,14.499 C14,14.223 14.224,13.999 14.5,13.999 L21,13.999 C21.276,13.999 21.5,14.223 21.5,14.499 C21.5,14.775 21.276,14.999 21,14.999 L14.5,14.999 Z" id="Path"></path>
        </g>
    </g>
</svg>