<?xml version="1.0" encoding="UTF-8"?>
<svg width="26px" height="26px" viewBox="0 0 26 26" version="1.1" xmlns="http://www.w3.org/2000/svg" xmlns:xlink="http://www.w3.org/1999/xlink">
    <!-- Generator: Sketch 52.4 (67378) - http://www.bohemiancoding.com/sketch -->
    <title>parking-p</title>
    <desc>Created with Sketch.</desc>
    <g id="parking-p" stroke="none" stroke-width="1" fill="none" fill-rule="evenodd">
        <g transform="translate(1.000000, 1.000000)" fill="#008C6F" fill-rule="nonzero" id="Shape">
            <path d="M16,24 C15.448,24 15,23.552 15,23 L15,22 L5,22 L5,23 C5,23.552 4.551,24 4,24 L2,24 C1.449,24 1,23.552 1,23 L1,22 C0.449,22 0,21.552 0,21 L0,17.707 C0,17.44 0.104,17.19 0.292,17.001 L2.074,15.219 L3.91,10.628 C4.063,10.247 4.427,10 4.838,10 L8.951,10 C9.227,10 9.451,10.224 9.451,10.5 C9.451,10.776 9.227,11 8.951,11 L4.839,11 L3.239,15 L17.5,15 C17.634,15 17.759,15.052 17.854,15.146 L19.708,17 C19.896,17.19 20,17.441 20,17.707 L20,21 C20,21.552 19.552,22 19,22 L19,23 C19,23.552 18.552,24 18,24 L16,24 Z M16,23 L18,23 L18,22 L16,22 L16,23 Z M2,23 L4,23 L4,22 L2,22 L2,23 Z M1,21 L19,21 L19,20 L15,20 C14.724,20 14.5,19.776 14.5,19.5 C14.5,19.224 14.724,19 15,19 L19,19 L19,17.707 L17.293,16 L2.707,16 L1,17.708 L1,19 L5,19 C5.276,19 5.5,19.224 5.5,19.5 C5.5,19.776 5.276,20 5,20 L1,20 L1,21 Z"></path>
            <path d="M17,14 C13.14,14 10,10.86 10,7 C10,3.14 13.14,0 17,0 C20.86,0 24,3.14 24,7 C24,10.86 20.86,14 17,14 Z M17,1 C13.692,1 11,3.692 11,7 C11,10.308 13.692,13 17,13 C20.308,13 23,10.308 23,7 C23,3.692 20.308,1 17,1 Z"></path>
            <path d="M15.5,11 C15.224,11 15,10.776 15,10.5 L15,3.5 C15,3.224 15.224,3 15.5,3 L17.5,3 C18.878,3 20,4.121 20,5.5 C20,6.879 18.878,8 17.5,8 L16,8 L16,10.5 C16,10.776 15.776,11 15.5,11 Z M17.5,7 C18.327,7 19,6.327 19,5.5 C19,4.673 18.327,4 17.5,4 L16,4 L16,7 L17.5,7 Z"></path>
        </g>
    </g>
</svg>