<?xml version="1.0" encoding="UTF-8"?>
<svg width="26px" height="26px" viewBox="0 0 26 26" version="1.1" xmlns="http://www.w3.org/2000/svg" xmlns:xlink="http://www.w3.org/1999/xlink">
    <!-- Generator: Sketch 52.4 (67378) - http://www.bohemiancoding.com/sketch -->
    <title>party-balloon</title>
    <desc>Created with Sketch.</desc>
    <g id="party-balloon" stroke="none" stroke-width="1" fill="none" fill-rule="evenodd">
        <g transform="translate(4.000000, 1.000000)" fill="#008C6F" fill-rule="nonzero" id="Shape">
            <path d="M10,24 C9.198,24 8.669,23.275 8.531,22 L7.213,22 C6.951,22 6.697,21.924 6.478,21.78 C5.861,21.374 5.689,20.542 6.095,19.925 L6.954,18.634 C5.48,18.104 4.099,17.012 2.942,15.455 C1.413,13.398 0.5,10.798 0.5,8.5 C0.5,3.813 4.313,0 9,0 C13.687,0 17.5,3.813 17.5,8.5 C17.5,10.798 16.587,13.398 15.058,15.455 C13.901,17.011 12.52,18.104 11.047,18.633 L11.907,19.922 C12.053,20.144 12.129,20.398 12.129,20.659 C12.129,21.016 11.991,21.352 11.738,21.606 C11.485,21.86 11.149,22 10.792,22 L9.539,22 C9.619,22.585 9.804,23 10.001,23 C10.277,23 10.501,23.224 10.501,23.5 C10.501,23.776 10.276,24 10,24 Z M6.929,20.477 C6.828,20.632 6.871,20.842 7.028,20.944 C7.083,20.98 7.147,21 7.214,21 L10.791,21 C10.881,21 10.966,20.965 11.03,20.901 C11.094,20.837 11.129,20.752 11.129,20.661 C11.129,20.594 11.11,20.53 11.073,20.475 L10.028,18.908 C9.683,18.969 9.338,19 9,19 C8.662,19 8.318,18.969 7.973,18.907 L6.929,20.477 Z M9,1 C4.865,1 1.5,4.365 1.5,8.5 C1.5,13.616 5.624,18 9,18 C12.376,18 16.5,13.616 16.5,8.5 C16.5,4.365 13.135,1 9,1 Z"></path>
        </g>
    </g>
</svg>