<?xml version="1.0" encoding="UTF-8"?>
<svg width="24px" height="24px" viewBox="0 0 24 24" version="1.1" xmlns="http://www.w3.org/2000/svg" xmlns:xlink="http://www.w3.org/1999/xlink">
    <!-- Generator: Sketch 52.4 (67378) - http://www.bohemiancoding.com/sketch -->
    <title>real-estate-favorite-hands-heart</title>
    <desc>Created with Sketch.</desc>
    <g id="Page-1" stroke="none" stroke-width="1" fill="none" fill-rule="evenodd">
        <g id="real-estate-favorite-hands-heart" fill="#008C6F">
            <path d="M3.5,23.814 C3.347,23.814 3.205,23.746 3.109,23.626 L1.095,21.113 C0.388,20.229 -0.001,19.119 -4.4408921e-16,17.986 L-4.4408921e-16,12.815 C-4.4408921e-16,11.712 0.897,10.815 2,10.815 C3.103,10.815 4,11.712 4,12.815 L4,15.011 C4.299,14.838 4.582,14.753 4.86,14.753 C5.685,14.753 6.364,15.479 7.391,16.578 L7.417,16.606 C7.625,16.829 7.853,17.072 8.103,17.332 C8.124,17.353 8.143,17.378 8.16,17.404 C8.709,18.226 9,19.186 9,20.178 L9,23.178 C9,23.454 8.776,23.678 8.5,23.678 C8.224,23.678 8,23.454 8,23.178 L8,20.178 C8,19.399 7.776,18.643 7.351,17.991 C7.1,17.728 6.871,17.484 6.661,17.26 C5.765,16.302 5.24,15.76 4.855,15.76 C4.727,15.76 4.583,15.816 4.401,15.937 C4.024,16.188 3.892,16.683 4.095,17.088 L5.428,19.306 C5.57,19.543 5.493,19.85 5.257,19.992 C5.179,20.039 5.091,20.064 5,20.064 C4.825,20.064 4.661,19.971 4.571,19.822 L3.219,17.57 C3.066,17.267 2.996,16.945 3.006,16.624 C3.003,16.611 3,16.589 3,16.564 L3,12.814 C3,12.262 2.551,11.814 2,11.814 C1.449,11.814 1,12.263 1,12.814 L1,17.986 C0.999,18.892 1.31,19.781 1.876,20.488 L3.89,23.001 C4.062,23.216 4.028,23.531 3.813,23.704 C3.724,23.775 3.613,23.814 3.5,23.814 Z" id="Path"></path>
            <path d="M20.5,23.814 C20.387,23.814 20.276,23.775 20.188,23.704 C20.083,23.62 20.018,23.501 20.003,23.368 C19.988,23.235 20.026,23.105 20.11,23.001 L22.124,20.488 C22.689,19.782 23,18.895 23,17.99 L23,12.814 C23,12.262 22.552,11.814 22,11.814 C21.448,11.814 21,12.263 21,12.814 L21,16.564 C21,16.576 20.999,16.591 20.996,16.606 C21.01,16.928 20.942,17.249 20.799,17.536 L19.428,19.822 C19.338,19.972 19.174,20.065 18.999,20.065 C18.909,20.065 18.82,20.04 18.742,19.994 C18.505,19.852 18.429,19.544 18.57,19.308 L19.922,17.056 C20.107,16.684 19.968,16.185 19.597,15.938 C19.416,15.817 19.271,15.761 19.143,15.761 C18.758,15.761 18.233,16.303 17.337,17.261 C17.127,17.486 16.899,17.73 16.647,17.992 C16.224,18.643 16,19.399 16,20.178 L16,23.178 C16,23.454 15.776,23.678 15.5,23.678 C15.224,23.678 15,23.454 15,23.178 L15,20.178 C15,19.186 15.29,18.225 15.841,17.4 C15.859,17.374 15.877,17.351 15.898,17.33 C16.157,17.06 16.393,16.808 16.609,16.577 C17.637,15.477 18.315,14.752 19.14,14.752 C19.419,14.752 19.702,14.836 20.001,15.01 L20.001,12.815 C20.001,11.712 20.898,10.815 22.001,10.815 C23.104,10.815 24.001,11.712 24.001,12.815 L24.001,17.991 C24.001,19.122 23.612,20.231 22.906,21.114 L20.892,23.627 C20.795,23.746 20.653,23.814 20.5,23.814 Z" id="Path"></path>
            <path d="M3.5,8.814 C3.363,8.814 3.23,8.757 3.136,8.657 C3.044,8.56 2.996,8.432 3,8.299 C3.004,8.165 3.06,8.042 3.157,7.95 L10.972,0.595 C11.251,0.333 11.616,0.188 12,0.188 C12.384,0.188 12.749,0.332 13.028,0.594 L20.843,7.949 C21.044,8.138 21.053,8.455 20.864,8.656 C20.77,8.756 20.637,8.813 20.5,8.813 C20.372,8.813 20.25,8.765 20.157,8.677 L12.342,1.322 C12.25,1.236 12.128,1.188 12,1.188 C11.872,1.188 11.75,1.236 11.658,1.323 L3.843,8.678 C3.75,8.766 3.628,8.814 3.5,8.814 Z" id="Path"></path>
            <path d="M12,16.102 C11.735,16.102 11.486,16 11.298,15.815 L7.383,11.853 C6.473,10.98 6.24,9.577 6.821,8.445 C7.209,7.718 7.852,7.188 8.635,6.95 C8.927,6.861 9.228,6.816 9.529,6.816 C10.026,6.816 10.523,6.941 10.966,7.178 C11.214,7.31 11.443,7.476 11.646,7.671 L12,8.013 L12.353,7.672 C12.926,7.119 13.681,6.814 14.479,6.814 C15.318,6.814 16.1,7.145 16.682,7.747 C16.879,7.951 17.046,8.181 17.18,8.431 C17.764,9.568 17.531,10.974 16.613,11.855 L12.712,15.803 C12.523,15.996 12.27,16.102 12,16.102 Z M9.528,7.817 C9.325,7.817 9.122,7.847 8.925,7.907 C8.398,8.067 7.966,8.423 7.706,8.909 C7.328,9.645 7.483,10.564 8.084,11.141 L12,15.102 L15.911,11.145 C16.519,10.561 16.674,9.638 16.294,8.897 C16.207,8.734 16.095,8.58 15.962,8.443 C15.571,8.038 15.044,7.815 14.479,7.815 C13.942,7.815 13.433,8.02 13.048,8.392 L12.348,9.068 C12.254,9.158 12.13,9.208 12,9.208 C11.87,9.208 11.746,9.158 11.653,9.068 L10.953,8.392 C10.817,8.262 10.663,8.15 10.496,8.061 C10.197,7.901 9.863,7.817 9.528,7.817 Z" id="Shape" fill-rule="nonzero"></path>
        </g>
    </g>
</svg>