<?xml version="1.0" encoding="UTF-8"?>
<svg width="24px" height="24px" viewBox="0 0 24 24" version="1.1" xmlns="http://www.w3.org/2000/svg" xmlns:xlink="http://www.w3.org/1999/xlink">
    <!-- Generator: Sketch 52.4 (67378) - http://www.bohemiancoding.com/sketch -->
    <title>school-book-apple</title>
    <desc>Created with Sketch.</desc>
    <g id="Page-1" stroke="none" stroke-width="1" fill="none" fill-rule="evenodd">
        <g id="school-book-apple" fill="#008C6F">
            <path d="M14.055,15.5 C12.927,15.5 12.571,15.266 12.278,15.005 C12.184,14.922 12.175,14.913 12,14.913 C11.826,14.913 11.816,14.922 11.723,15.005 C11.43,15.266 11.074,15.5 9.945,15.5 C9.008,15.5 8.047,14.771 7.239,13.449 C6.55,12.32 6.069,10.914 5.952,9.688 C5.911,9.144 6.299,8.678 6.835,8.624 C7.572,8.533 8.84,8.004 8.986,5.493 C8.987,5.468 8.99,5.442 8.993,5.417 C9.027,5.15 9.164,4.911 9.379,4.745 C9.559,4.606 9.773,4.533 9.999,4.533 C10.042,4.533 10.086,4.536 10.129,4.541 C10.705,4.621 11.118,4.794 11.45,4.933 C11.467,4.94 11.483,4.947 11.5,4.954 L11.5,4.174 C11.499,3.804 11.196,3.501 10.825,3.5 L9.652,3.5 C9.376,3.5 9.152,3.276 9.152,3 C9.152,2.724 9.376,2.5 9.652,2.5 L10.826,2.5 C11.747,2.502 12.498,3.253 12.5,4.173 L12.5,4.873 C12.84,4.7 13.345,4.523 14.348,4.523 C16.439,4.523 18.076,6.548 18.076,9.132 C18.076,11.588 16.236,15.5 14.055,15.5 Z M12,13.913 C12.513,13.913 12.739,14.077 12.943,14.259 C13.07,14.372 13.214,14.5 14.055,14.5 C15.354,14.5 17.076,11.439 17.076,9.131 C17.076,7.107 15.878,5.522 14.348,5.522 C13.366,5.522 13.051,5.703 12.774,5.863 C12.574,5.978 12.348,6.108 12,6.108 C11.665,6.108 11.374,5.986 11.066,5.857 C10.772,5.734 10.439,5.595 9.996,5.533 C9.92,6.654 9.492,9.304 6.946,9.618 C7.205,12.304 8.946,14.5 9.945,14.5 C10.787,14.5 10.93,14.372 11.057,14.259 C11.261,14.077 11.487,13.913 12,13.913 Z" id="Shape" fill-rule="nonzero"></path>
            <path d="M13.358,4.142 C13.224,4.142 13.099,4.09 13.004,3.996 C12.911,3.903 12.858,3.774 12.858,3.642 C12.859,1.91 14.268,0.501 16,0.5 C16.134,0.5 16.259,0.552 16.354,0.646 C16.449,0.74 16.5,0.866 16.5,1 C16.5,2.733 15.091,4.142 13.358,4.142 Z M15.42,1.581 C14.708,1.784 14.141,2.35 13.939,3.062 C14.651,2.859 15.218,2.293 15.42,1.581 Z" id="Shape" fill-rule="nonzero"></path>
            <path d="M0.5,23.5 C0.224,23.5 0,23.276 0,23 C0,22.724 0.224,22.5 0.5,22.5 L5.5,22.5 C6.327,22.5 7,21.827 7,21 L7,19 C7,18.173 6.327,17.5 5.5,17.5 L0.5,17.5 C0.224,17.5 0,17.276 0,17 C0,16.724 0.224,16.5 0.5,16.5 L22,16.5 C23.252,16.5 24,17.435 24,19 L24,21 C24,22.565 23.252,23.5 22,23.5 L0.5,23.5 Z M22,22.5 C22.247,22.5 23,22.5 23,21 L23,19 C23,17.5 22.247,17.5 22,17.5 L20,17.5 L20,22.5 L22,22.5 Z M19,22.5 L19,17.5 L18,17.5 L18,22.5 L19,22.5 Z M17,22.5 L17,17.5 L14,17.5 L14,22.5 L17,22.5 Z M13,22.5 L13,17.5 L12,17.5 L12,22.5 L13,22.5 Z M11,22.5 L11,17.5 L7.499,17.5 C7.822,17.928 8,18.452 8,19 L8,21 C8,21.548 7.822,22.072 7.499,22.5 L11,22.5 Z" id="Shape" fill-rule="nonzero"></path>
            <path d="M1.5,21.5 C1.224,21.5 1,21.276 1,21 C1,20.724 1.224,20.5 1.5,20.5 L5.5,20.5 C5.776,20.5 6,20.724 6,21 C6,21.276 5.776,21.5 5.5,21.5 L1.5,21.5 Z" id="Path"></path>
            <path d="M1.5,19.5 C1.224,19.5 1,19.276 1,19 C1,18.724 1.224,18.5 1.5,18.5 L5.5,18.5 C5.776,18.5 6,18.724 6,19 C6,19.276 5.776,19.5 5.5,19.5 L1.5,19.5 Z" id="Path"></path>
        </g>
    </g>
</svg>