<svg id="Layer_1" data-name="Layer 1" xmlns="http://www.w3.org/2000/svg" viewBox="0 0 24 24"><defs><style>.cls-1{fill:#008c6f;}</style></defs><title>shop copie 2-EDIT</title><path class="cls-1" d="M5,19.5a1,1,0,0,1-1-1v-5a1,1,0,0,1,1-1h7a1,1,0,0,1,1,1v5a1,1,0,0,1-1,1Zm0-1h7v-5H5Z"/><path class="cls-1" d="M3.5,22.5A1.5,1.5,0,0,1,2,21V10.17a3.319,3.319,0,0,1-.875-.562A3.357,3.357,0,0,1,0,6.983V6a.206.206,0,0,1,0-.042.521.521,0,0,1,.029-.13l0-.008a.274.274,0,0,1,.015-.04L1.777,2.329A1.491,1.491,0,0,1,3.118,1.5H20.882a1.49,1.49,0,0,1,1.341.83l1.724,3.447a.3.3,0,0,1,.016.04l.006.016A.478.478,0,0,1,24,5.961.266.266,0,0,1,24,6V7a3.362,3.362,0,0,1-2,3.175V21a1.5,1.5,0,0,1-1.5,1.5Zm17-1A.5.5,0,0,0,21,21V10.441c-.083.01-.165.016-.243.019l-.114,0a3.356,3.356,0,0,1-2.059-.7,4.553,4.553,0,0,1-5.884,1.1,4.491,4.491,0,0,1-.7-.51,4.548,4.548,0,0,1-6.584-.585,3.351,3.351,0,0,1-2.053.7A3.4,3.4,0,0,1,3,10.438V21a.5.5,0,0,0,.5.5H14v-8a1,1,0,0,1,1-1h4a1,1,0,0,1,1,1v8Zm-1.5,0v-8H15v8ZM12.5,9.438A3.543,3.543,0,0,0,18,8.853V6.5H12.5ZM6,8.855a3.544,3.544,0,0,0,5.5.582V6.5H6ZM19,8.8a2.327,2.327,0,0,0,1.635.667c.029,0,.057,0,.086,0A2.365,2.365,0,0,0,23,7.017V6.5H19ZM1,7A2.362,2.362,0,0,0,5,8.8V6.5H1ZM22.691,5.5,21.329,2.777a.5.5,0,0,0-.447-.277H18.141l.75,3Zm-4.831,0-.75-3H12.5v3Zm-6.36,0v-3H6.89l-.75,3Zm-6.39,0,.75-3H3.118a.5.5,0,0,0-.447.276L1.309,5.5Z"/></svg>